<?xml version="1.0" encoding="UTF-8"?>
<svg width="198px" height="81px" viewBox="0 0 198 81" version="1.1" xmlns="http://www.w3.org/2000/svg" xmlns:xlink="http://www.w3.org/1999/xlink">
    <!-- Generator: Sketch 52.5 (67469) - http://www.bohemiancoding.com/sketch -->
    <title>calypso-equipe-cousteau</title>
    <desc>Created with Sketch.</desc>
    <g id="Page-1" stroke="none" stroke-width="1" fill="none" fill-rule="evenodd">
        <g id="v2" transform="translate(-1182.000000, -841.000000)" fill="#BABCC5" fill-rule="nonzero">
            <g id="calypso-equipe-cousteau" transform="translate(1182.000000, 841.000000)">
                <path d="M160.547014,32.2290948 C159.786618,32.2974582 159.40642,32.3316399 159.40642,32.3316399 L159.065978,32.6562809 C159.065978,32.6562809 158.72803,32.5293536 158.048393,32.3975445 C157.37125,32.2669558 156.893633,31.9386535 156.285077,32.004558 C155.671533,32.0692421 155.738874,32.0692421 154.787382,32.3316399 C153.83589,32.5940377 153.159994,32.5293536 152.68113,32.2669558 C152.206007,32.004558 151.663545,31.5627533 150.986402,31.355276 C150.404034,31.1697669 149.897735,30.7657963 149.215604,31.4834238 C148.535967,32.2034922 148.74547,32.6428559 148.333946,33.2298947 C147.929905,33.8193744 147.963575,34.4369246 147.010836,34.5687338 C146.055603,34.6993224 143.241032,34.8958157 141.47647,35.0105384 C140.117196,35.0959703 137.239026,34.9190043 136.04062,35.3998635 C134.40575,36.0515865 133.285907,36.5275639 132.265828,37.0486981 C131.248243,37.5722733 129.935109,38.2300984 129.935109,38.2300984 L128.659386,38.9245373 C128.659386,38.9245373 126.462101,38.2069098 126.326173,38.0104166 C126.190246,37.8175847 123.673718,36.6410662 121.233259,35.5987977 C118.785319,34.5504269 117.628065,34.2916905 116.339872,33.8327995 C115.049185,33.3739084 114.978104,33.1798561 114.978104,33.1798561 C114.978104,33.1798561 114.8534,32.5391173 114.571568,31.8898353 C114.062776,30.7145372 113.662476,29.9456506 111.972736,29.0107822 C110.574803,28.2370138 109.634535,27.9856001 107.576918,28.1540228 C105.197564,28.3505161 102.345582,29.785771 101.460183,30.3752507 C100.578526,30.9598486 99.6931268,31.4175192 99.6931268,31.4175192 L98.6082015,30.7645758 C97.3823606,30.0481688 95.2761089,28.677598 94.5291316,27.3045862 C93.7821543,25.9340154 92.9004966,24.6269082 92.6959819,23.9751853 C92.6001042,23.6718845 92.5090592,23.3671406 92.42288,23.0610645 L93.8519886,22.3434371 C93.8519886,22.3434371 95.6851383,21.4952209 97.18034,20.9740867 C98.6742946,20.4529524 102.205914,19.2764339 102.547603,19.0140361 C102.885551,18.7552997 103.906877,19.6010749 103.906877,19.6010749 C105.12773,20.384607 107.777691,21.101014 109.883943,21.559905 C111.990194,22.0175756 114.636415,22.6046144 116.405965,23.4528306 C118.171775,24.3022672 119.257947,24.7574969 119.801657,25.5398084 C120.342872,26.3245609 119.93509,26.1292882 120.279273,26.8469156 C120.617221,27.5621022 120.956416,28.0197728 121.840568,28.6751571 C122.72472,29.32688 123.330782,29.8492347 123.672471,30.1079711 C124.012913,30.3728098 123.87948,29.32688 123.672471,28.9997981 C123.472944,28.6751571 122.466583,28.2418956 122.330655,27.4583635 C122.197222,26.6723906 123.061421,26.7126656 123.672471,26.9775043 C124.286015,27.2374612 125.372187,27.7610363 126.051824,28.4103184 C126.731462,29.0657026 127.588179,29.6173482 128.063301,29.9444302 C128.538423,30.2727325 130.058566,30.8280395 128.973641,29.8480142 C127.884974,28.8679889 127.68046,28.7361798 127.13675,28.1503615 C126.425937,27.3814749 126.342385,27.011677 127.407358,27.5608817 C128.291509,28.0185523 128.631952,28.4090979 129.178155,28.8057457 C129.719371,29.1950709 130.057319,29.5856164 130.534935,29.6539619 C131.010058,29.7162051 131.555015,29.7162051 130.670863,29.0644822 C129.784217,28.4090979 129.991226,28.3468547 128.902559,27.5608817 C127.816387,26.7797906 127.407358,26.4527087 127.13675,26.2598768 C126.866142,26.0633836 127.384911,26.0682654 127.384911,26.0682654 C127.384911,26.0682654 127.341264,26.1280677 128.427437,26.5832974 C129.513609,27.0397475 130.251857,27.3155703 130.670863,27.4315135 C131.501392,27.6597386 131.320571,27.1776589 130.73945,26.8456952 C129.719371,26.2598768 129.107074,25.997479 128.633199,25.6691767 C128.158076,25.3420947 127.544532,24.8856446 127.207831,24.5610036 C126.867389,24.2339217 127.478439,24.4938786 128.089489,24.5610036 C128.698045,24.6232468 130.450137,25.0137924 130.652157,24.8856446 C130.856672,24.7550559 129.719371,24.1655762 129.244248,24.0374285 C128.766632,23.9068398 128.023396,23.644442 126.66038,23.5162942 C125.301106,23.3857056 122.449124,22.6680781 121.294364,22.4056803 C120.142099,22.1457234 116.540646,20.7080275 113.75351,19.2727726 C110.970115,17.8350767 106.554344,15.2879873 105.264904,14.7046099 C103.974217,14.1151302 103.565188,13.8551733 103.158653,13.9186369 C102.749623,13.985762 102.547603,13.9186369 101.051154,14.310403 C99.5571994,14.7033894 91.7444899,17.3115015 90.0447735,17.5738993 C88.3487983,17.8326358 87.7377484,17.9644449 86.3797211,17.8326358 C85.0216939,17.7008267 85.0877871,17.6398039 83.5925854,18.029129 C82.0998777,18.4221155 80.9438711,18.7491974 80.9438711,18.7491974 C80.9438711,18.7491974 80.3328212,18.2280632 80.266728,17.9009813 C80.1968937,17.5738993 79.6556781,17.0527651 80.4026554,16.7915878 C81.1483857,16.5316309 82.3729796,16.2667921 82.4390728,15.7468784 L82.506413,15.2245237 C82.506413,15.2245237 82.4390728,14.6362644 82.506413,14.0480052 C82.5737532,13.4585254 82.506413,13.199789 82.506413,13.199789 L83.7285128,12.875148 C83.7285128,12.875148 83.5925854,12.089175 83.3905648,11.3715476 C83.183556,10.6539201 81.7606827,8.04580798 80.603429,7.32573959 C79.4486694,6.60811211 78.7029391,6.73870078 78.0893951,6.73870078 C77.4783452,6.73870078 76.7999551,6.41405978 77.411005,6.15288243 C78.025796,5.89048463 79.7217713,5.62808683 80.603429,6.41405978 C81.4850867,7.19881228 82.3717326,8.17395574 82.6435874,7.78463063 C82.9141953,7.39164415 82.9815355,6.73870078 81.8255288,5.6964323 C80.9351418,4.88727071 79.1082273,4.65172291 77.411005,4.77987068 C75.7150297,4.91045935 74.9493468,4.29290917 73.2508775,5.14112533 C71.5524081,5.98934148 70.4824473,6.47752344 69.9387376,8.50225811 C69.3950279,10.5233314 70.0060778,11.7620931 69.73547,12.5480661 C69.4648621,13.3315981 68.9872456,13.2656936 68.4435359,13.65868 C67.9023202,14.0480052 67.7663928,14.5068962 68.6480505,14.4385507 C69.5322023,14.3763075 70.5510345,13.9186369 70.1432522,14.5068962 C69.73547,15.0927145 69.3488874,16.3949399 69.1743017,16.8916651 C68.9199054,17.6227175 69.3451462,18.3586518 69.8726444,17.3786266 C70.5709872,16.0776216 70.9139233,14.8888986 70.9139233,14.8888986 C70.9139233,14.8888986 71.3915399,14.7973645 71.2543654,15.9116398 C71.1209321,17.0198128 71.1932604,18.367195 71.1296614,18.8871088 C71.0598271,19.408243 71.5025265,20.247916 71.9090618,19.5302885 C72.3193381,18.8126611 72.2981384,18.0864904 72.2320453,17.4994516 C72.162211,16.9136332 71.9090618,15.9421511 72.2495039,15.8762466 C72.5899459,15.8115625 72.9266469,15.8762466 72.9266469,16.5316309 C72.9266469,17.1809129 72.8593067,17.9473585 72.9964812,18.6015224 C73.1299145,19.2532453 73.4379336,20.1014614 73.8457159,19.2532453 C74.2510041,18.4050291 73.9305146,17.9058631 73.8107987,16.8526105 C73.7322352,16.1667148 73.3331822,15.4820397 73.7397174,15.4173555 C74.1474997,15.3551123 74.4181075,15.6150692 74.6251162,16.5316309 C74.8296309,17.4433107 74.8957241,19.0091543 74.8296309,19.3996999 C74.7597966,19.7926863 73.3331822,20.3797251 73.0625743,20.5103138 C72.7894724,20.6409025 70.2105924,21.5550232 69.5995425,21.5550232 C68.9859985,21.5550232 66.5343167,21.642896 65.8634088,21.7515164 C64.2272915,22.0139142 60.6283323,22.5350485 58.9323571,23.0561827 C57.2326407,23.5797579 56.6215908,23.711567 56.6215908,23.711567 C56.6215908,23.711567 56.0803751,23.2538964 55.6040056,22.8633509 C55.1263891,22.4703644 50.2379898,19.0103748 49.4897655,18.3586518 C48.7415411,17.7032676 47.449607,16.2045489 47.5867815,15.4844806 C47.7202148,14.7680735 48.7415411,12.8104639 49.1493234,12.1575205 C49.5571057,11.5021362 50.1681556,9.93629261 49.5571057,10.2633745 C48.9460557,10.5916769 48.3350058,11.5021362 48.1317382,11.7620931 C47.9272236,12.0269318 47.112906,12.2197637 46.9757316,11.0444657 C46.8398041,9.8716085 46.2574362,6.75334624 46.0267337,6.08697787 C45.4131897,4.324641 44.9380672,4.25751598 45.1425818,6.02107331 C45.3433554,7.78463063 45.4131897,8.37044898 45.209922,9.2845697 C45.0054074,10.1999109 45.0727476,9.74346074 44.7323055,8.76465591 C44.3956045,7.78463063 44.0551624,6.15288243 43.7845546,5.49993907 C43.5139468,4.84821615 43.3069381,4 42.9702371,4 C42.629795,4 42.4926205,4.19405233 42.5624548,4.91167981 C42.6347832,5.69765276 43.0363302,6.87050991 43.1735047,7.65404196 C43.3131733,8.46808537 43.7845546,8.95748778 43.7845546,9.35169471 C43.7845546,9.74468119 43.9853282,10.6551405 43.3069381,9.35169471 C42.629795,8.04824889 42.4913735,7.06822361 42.2207657,6.543428 C41.9501579,6.02229376 41.8815706,5.17285715 41.6097158,5.04348894 C41.3366139,4.91290026 40.9325727,5.30466628 40.9961718,5.82946189 C41.0660061,6.35059613 41.0660061,6.22000745 41.677056,7.78707154 C42.2905999,9.35291517 42.3554461,9.2223265 42.4913735,9.87404941 C42.628548,10.5257723 42.3554461,10.9846634 42.015004,10.2023518 C41.677056,9.41881973 41.677056,9.09173782 40.9325727,8.04946934 C40.1843483,7.0035395 40.1145141,6.47996435 40.0484209,7.13168726 C39.9785866,7.78707154 39.9149876,7.58935785 40.3851219,8.70119226 C40.8390447,9.75566528 41.2031805,9.74590165 41.4750354,10.9858838 C41.7456432,12.2246455 41.8154775,12.8800298 41.9514049,13.5317527 C42.0848382,14.1834756 42.3566931,14.9023236 43.1036704,15.8164443 C43.8518948,16.730565 51.5261828,25.9340154 52.4789218,26.5857383 C53.4279197,27.2386817 54.111298,27.6304477 54.111298,27.6304477 C54.111298,27.6304477 53.3630736,27.6939113 55.9444477,27.6939113 C58.5220807,27.6939113 68.171681,27.4339544 69.6007896,27.6304477 C71.0236629,27.8269409 72.2495039,27.2386817 73.1997488,28.2821706 C74.1487467,29.32688 74.3520143,29.6551823 74.218581,30.7633554 C74.0814065,31.8739693 73.4703566,32.5269127 73.4005224,32.9162378 C73.3331822,33.3092243 74.1861579,33.8608699 74.1861579,33.8608699 C74.1861579,33.8608699 75.0304044,34.4820815 76.3248326,34.6126701 C77.6142726,34.7456997 79.653184,34.7456997 80.6021819,34.4198383 C81.5536739,34.0915359 82.0973836,33.8974836 82.0973836,33.8974836 L83.4566579,34.5467656 C84.4754901,35.0056566 92.8992495,38.269153 94.4617914,38.5925735 C96.0205922,38.9208759 98.4685329,39.5738193 99.6906327,40.096174 C100.916474,40.6173082 104.787288,41.9244154 106.282489,42.0550041 C106.854881,42.1050427 108.15305,42.1538609 109.772956,42.2234269 L109.772956,42.2136632 C113.416809,42.245395 116.695279,42.4443292 119.493638,42.7665293 L121.885462,43.0728635 C124.019148,43.3608908 126.225163,43.6586818 128.082007,43.613525 C130.184517,43.559825 134.838473,42.4931474 138.937495,40.785731 C139.151986,40.6807719 139.34403,40.6002218 139.570992,40.4867195 C140.606036,39.9643648 141.568751,39.4993715 142.456644,39.0807555 C145.520623,37.4795187 146.994625,36.8485435 148.835257,36.334732 C149.332418,36.1632905 149.843425,36.0330568 150.362881,35.9454069 L150.493821,35.913675 L151.720909,35.7147409 C151.956599,35.6634818 152.166102,35.6012386 152.336947,35.5109249 C153.090159,35.1179385 153.632622,34.7444793 155.057989,34.15622 C156.483357,33.5704016 156.826293,33.8962631 157.639363,33.7632335 C158.454928,33.6326448 158.861463,33.6326448 159.678275,33.3067834 C159.984562,33.1855952 160.300728,33.0176162 160.547014,32.8483707 L160.547014,54.5129751 L36.7480597,54.5129751 L36.7480597,1.13686838e-13 L160.547014,1.13686838e-13 L160.547014,32.2290948 Z M132.585399,74.6327161 C132.585399,74.6327161 138.624373,74.6597422 139.313725,74.6597422 C140.003077,74.6597422 140.262671,74.060253 140.262671,74.060253 C140.262671,74.060253 140.461403,73.8059615 140.288755,72.9546378 C140.11859,72.103314 139.138592,72.0455763 139.138592,72.0455763 L134.71556,72.0455763 C132.216503,72.0455763 132.068696,69.7987204 132.068696,69.7987204 C132.068696,69.7987204 132.102232,69.7716943 132.102232,67.1010192 C132.102232,64.430344 134.568995,64.4598271 134.739159,64.4598271 C134.91926,64.4598271 142.587837,64.400861 143.133109,64.400861 C143.675896,64.400861 143.334325,64.7718563 143.334325,64.7718563 L141.089894,67.0174838 C141.089894,67.0174838 137.785972,66.9880007 136.638293,67.0727645 C135.490615,67.1587568 135.432238,68.1538106 135.432238,68.1538106 C135.432238,69.7458966 136.953781,69.5726835 136.953781,69.5726835 L141.176839,69.5726835 C143.592677,69.5726835 143.592677,71.7605733 143.592677,71.7605733 L143.592677,74.5467238 C143.592677,76.9631074 141.322162,76.9631074 141.322162,76.9631074 L132.615209,76.9631074 C132.099748,76.9631074 132.127073,76.6486212 132.124589,76.6486212 C132.124589,76.6486212 132.153157,75.2285198 132.124589,74.9164906 C132.099748,74.6020045 132.585399,74.6327161 132.585399,74.6327161 Z M146.597258,61.1110413 C146.597258,60.3788783 147.072974,60.5840314 147.072974,60.5840314 C147.072974,60.5840314 149.193197,60.532436 149.719837,60.5840314 C150.25393,60.6356268 150.040293,61.1085844 150.040293,61.1085844 L150.040293,65.9757485 C150.040293,66.5531254 150.462599,66.0298008 150.462599,66.0298008 C150.462599,66.0298008 151.524574,64.8762755 151.840061,64.560561 C152.158033,64.2485318 152.369186,64.3541794 152.369186,64.3541794 L153.749132,64.3541794 C154.224847,64.3541794 154.173922,64.6182986 154.173922,64.6182986 L154.173922,66.5531254 C154.173922,67.0199407 153.853466,66.8651546 153.853466,66.8651546 C153.853466,66.8651546 151.94688,66.9204353 150.990481,66.9204353 C150.039051,66.9204353 150.039051,67.9670844 150.039051,67.9670844 C150.039051,67.9670844 149.985642,72.8342486 150.039051,73.5651831 C150.091218,74.2973461 151.204118,74.4545892 151.204118,74.4545892 L153.749132,74.4545892 C154.224847,74.4545892 153.957801,74.7187084 153.957801,74.7187084 L151.786652,76.9631074 C146.696625,77.5281996 146.597258,74.9828276 146.597258,74.9828276 L146.597258,61.1110413 Z M111.739638,64.400861 C114.068531,64.400861 114.228759,66.9020084 114.228759,66.9020084 L114.228759,74.3771961 C114.228759,76.9127404 111.950791,77.0110174 111.739638,77.0110174 L105.170299,77.0110174 C102.470025,77.0110174 102.467541,74.3771961 102.467541,74.3771961 L102.467541,66.9020084 C102.467541,64.478254 105.592604,64.400861 105.592604,64.400861 L111.739638,64.400861 Z M110.836649,73.5172731 L110.834165,67.6513699 C110.834165,67.6513699 110.729831,66.9020084 109.721265,66.9020084 L107.178735,66.9020084 C107.178735,66.9020084 105.910576,66.7631923 105.910576,68.1759229 L105.910576,73.6204639 C105.910576,73.6204639 105.963985,74.4803868 106.86449,74.4803868 L110.147297,74.4803868 C110.147297,74.4803868 110.836649,74.4054507 110.836649,73.5172731 Z M88.4817659,74.3784245 C88.4817659,74.3784245 88.5339331,64.400861 88.5351752,62.1048666 C88.5351752,59.8064153 91.5559039,59.5914346 91.5559039,59.5914346 L99.1288411,59.5914346 C99.8181933,59.5914346 99.4505388,59.9612014 99.4505388,59.9612014 C99.4505388,59.9612014 97.9103646,61.631909 97.4905429,62.0508143 C97.0645108,62.4709481 96.7974645,62.3665289 96.7974645,62.3665289 L93.5134156,62.3665289 C92.0328611,62.3665289 92.1371955,64.0298656 92.1371955,64.0298656 C92.1371955,64.0298656 92.1893627,71.1070318 92.1893627,72.7838816 C92.1893627,74.4545892 93.5655828,74.3784245 93.5655828,74.3784245 L99.3424782,74.3784245 C99.8691184,74.3784245 99.8194354,74.6965961 99.8194354,74.6965961 L99.8194354,76.5012059 C99.8194354,76.9188827 99.552389,77.0122458 99.552389,77.0122458 L91.1273877,77.0122458 C88.4817659,77.0122458 88.4817659,74.3784245 88.4817659,74.3784245 Z M168.577035,66.4769608 C168.577035,66.4769608 168.610571,69.781522 168.578277,69.9240235 C168.295084,72.1364825 165.841984,72.0701456 165.841984,72.0701456 C165.841984,72.0701456 161.611473,72.1733363 160.861259,72.1364825 C160.116013,72.1020856 159.616699,72.7335147 159.863872,73.79122 C160.098624,74.7887307 161.251271,74.5577799 161.251271,74.5577799 L167.61691,74.5577799 C168.256579,74.5577799 167.905072,74.9484306 167.905072,74.9484306 L165.945076,76.943452 L158.902505,76.943452 C156.769861,76.943452 156.451889,75.0884752 156.451889,75.0884752 C156.451889,75.0884752 156.451889,68.1292414 156.520203,66.2644369 C156.588518,64.400861 159.261465,64.4733402 159.261465,64.4733402 L165.91154,64.4733402 C168.292599,64.4733402 168.577035,66.4769608 168.577035,66.4769608 Z M165.197346,68.8675467 C165.233366,68.2717429 165.16381,67.6734822 165.16381,67.6734822 C165.16381,67.6734822 165.197346,66.9757161 164.059605,66.9757161 L160.789219,66.9757161 C160.789219,66.9757161 159.86263,67.0789068 159.86263,67.8823206 C159.86263,68.6906482 159.794316,71.2937579 159.794316,71.2937579 C159.794316,71.2937579 159.791831,71.8551648 160.216621,71.3969487 C160.647622,70.9411895 161.749343,69.7114997 161.749343,69.7114997 L163.845967,69.7114997 C163.845967,69.7114997 165.16381,69.4633504 165.197346,68.8675467 Z M180.95929,64.5015948 C183.098145,64.5015948 183.411148,66.3565715 183.411148,66.3565715 C183.411148,66.3565715 183.411148,73.3096631 183.345318,75.1720106 C183.27452,77.036815 180.599088,76.9667927 180.599088,76.9667927 L173.953982,76.9667927 C171.567954,76.9667927 171.288487,74.9570299 171.288487,74.9570299 C171.288487,74.9570299 171.254951,71.6549256 171.288487,71.514881 C171.567954,69.3011935 174.027264,69.3773581 174.027264,69.3773581 C174.027264,69.3773581 178.257775,69.2667966 179.003021,69.3011935 C179.745782,69.3380474 180.247581,68.7066182 180.000408,67.6525983 C179.763171,66.6550877 178.615493,66.8884953 178.615493,66.8884953 L172.252338,66.8884953 C171.605216,66.8884953 171.964176,66.4904738 171.964176,66.4904738 L173.921688,64.5015948 L180.95929,64.5015948 Z M180.000408,73.5578123 C180.000408,72.7457993 180.072448,70.1476035 180.072448,70.1476035 C180.072448,70.1476035 180.072448,69.5849681 179.647658,70.0407273 C179.216658,70.5026288 178.109968,71.7261764 178.109968,71.7261764 L176.009617,71.7261764 C176.009617,71.7261764 174.704196,71.975554 174.665691,72.5713578 C174.630913,73.1745324 174.704196,73.7703362 174.704196,73.7703362 C174.704196,73.7703362 174.665691,74.4607315 175.805917,74.4607315 L179.076303,74.4607315 C179.076303,74.4607315 180.000408,74.363683 180.000408,73.5578123 Z M189.544519,64.400861 C189.827713,64.400861 189.770577,64.8320509 189.770577,64.8320509 C189.770577,64.8320509 189.744494,72.4165717 189.770577,73.3796854 C189.796661,74.3452561 190.745607,74.3771961 190.745607,74.3771961 L191.75293,74.3771961 C192.50066,74.3771961 192.760254,74.7481914 192.760254,74.7481914 C192.760254,74.7481914 193.880607,75.9115444 194.135232,76.1658359 C194.394826,76.4213559 194.455688,75.8832898 194.455688,75.8832898 C194.455688,75.8832898 194.481771,65.1133686 194.455688,64.7436017 C194.425878,64.3762917 194.743849,64.4020894 194.743849,64.4020894 L197.615529,64.4020894 C198.098696,64.4020894 197.989394,64.8001109 197.989394,64.8001109 L197.989394,76.6215951 C197.989394,76.9323958 197.755884,77.0110174 197.755884,77.0110174 L189.311009,77.0110174 C186.065464,77.0110174 186.325058,74.3771961 186.325058,74.3771961 C186.325058,74.3771961 186.296491,65.2546417 186.296491,64.7988825 C186.296491,64.3468087 186.696439,64.400861 186.696439,64.400861 L189.544519,64.400861 Z M120.436654,64.400861 C120.7273,64.400861 120.665196,64.8320509 120.665196,64.8320509 C120.665196,64.8320509 120.640355,72.4165717 120.665196,73.3796854 C120.693764,74.3452561 121.645194,74.3771961 121.645194,74.3771961 L122.650034,74.3771961 C123.397763,74.3771961 123.654873,74.7481914 123.654873,74.7481914 C123.654873,74.7481914 124.775226,75.9115444 125.037304,76.1658359 C125.294414,76.4213559 125.350307,75.8832898 125.350307,75.8832898 C125.350307,75.8832898 125.378875,65.1133686 125.350307,64.7436017 C125.320497,64.3762917 125.635984,64.4020894 125.635984,64.4020894 L128.510148,64.4020894 C129.000768,64.4020894 128.884013,64.8001109 128.884013,64.8001109 L128.884013,76.6215951 C128.884013,76.9323958 128.652987,77.0110174 128.652987,77.0110174 L120.208112,77.0110174 C116.960084,77.0110174 117.217193,74.3771961 117.217193,74.3771961 L117.19111,64.7988825 C117.19111,64.3468087 117.593542,64.400861 117.593542,64.400861 L120.436654,64.400861 Z M77.758924,66.4769608 C77.758924,66.4769608 77.7961863,69.781522 77.7601661,69.9240235 C77.4757307,72.1364825 75.0238728,72.0701456 75.0238728,72.0701456 C75.0238728,72.0701456 70.7896358,72.1733363 70.0443902,72.1364825 C69.2966605,72.1020856 68.8010721,72.7335147 69.0470032,73.79122 C69.2817555,74.7887307 70.4356441,74.5577799 70.4356441,74.5577799 L76.8025255,74.5577799 C77.4409526,74.5577799 77.0869609,74.9484306 77.0869609,74.9484306 L75.1269651,76.943452 L68.0868785,76.943452 C65.954234,76.943452 65.6325363,75.0884752 65.6325363,75.0884752 C65.6325363,75.0884752 65.6325363,68.1292414 65.7045768,66.2644369 C65.7716489,64.400861 68.4433543,64.4733402 68.4433543,64.4733402 L75.0921869,64.4733402 C77.4744886,64.4733402 77.758924,66.4769608 77.758924,66.4769608 Z M74.3817195,68.8675467 C74.4164976,68.2717429 74.3494255,67.6734822 74.3494255,67.6734822 C74.3494255,67.6734822 74.3842036,66.9757161 73.2477041,66.9757161 L69.9723498,66.9757161 C69.9723498,66.9757161 69.0470032,67.0789068 69.0470032,67.8823206 C69.0470032,68.6906482 68.9749628,71.2937579 68.9749628,71.2937579 C68.9749628,71.2937579 68.9749628,71.8551648 69.403479,71.3969487 C69.828269,70.9411895 70.9299904,69.7114997 70.9299904,69.7114997 L73.0315829,69.7114997 C73.0315829,69.7114997 74.3444572,69.4633504 74.3817195,68.8675467 Z M32.1734939,64.400861 C32.4616555,64.400861 32.40452,64.8320509 32.40452,64.8320509 C32.40452,64.8320509 32.3523528,72.3993732 32.3809205,73.3649439 C32.4119724,74.3305146 33.418054,74.3771961 33.418054,74.3771961 L34.4204093,74.3771961 C35.168139,74.3771961 35.4264908,74.7481914 35.4264908,74.7481914 C35.4264908,74.7481914 36.5468433,75.9115444 36.8051952,76.1658359 C37.063547,76.4213559 37.1206824,75.8832898 37.1206824,75.8832898 C37.1206824,75.8832898 37.1492502,65.1133686 37.1206824,64.7436017 C37.0921147,64.3762917 37.407602,64.4020894 37.407602,64.4020894 L40.2792816,64.4020894 C40.7686596,64.4020894 40.6531465,64.8001109 40.6531465,64.8001109 L40.6531465,76.6215951 C40.6531465,76.9323958 40.4233625,77.0110174 40.4233625,77.0110174 L31.9772459,77.0110174 C28.7304593,77.0110174 28.9888111,74.3771961 28.9888111,74.3771961 L28.9751482,64.7988825 C28.9751482,64.3468087 29.3775808,64.400861 29.3775808,64.400861 L32.1734939,64.400861 Z M22.6976963,80.9703485 C22.4070505,80.9703485 22.4393445,80.7787085 22.4381024,80.77748 L22.4381024,77.7566934 C22.4095347,76.8242912 21.1426172,77.0110174 21.1426172,77.0110174 L16.9195589,77.0110174 C13.7895274,77.0110174 13.9932279,74.3771961 13.9932279,74.3771961 L13.9932279,66.9020084 C13.9932279,64.3468087 16.9518528,64.400861 16.9518528,64.400861 L25.4526208,64.400861 C25.8264856,64.400861 25.7109726,64.6563809 25.7109726,64.6563809 L25.7109726,80.8475023 C25.7109726,81.0882808 25.5196929,80.9703485 25.5196929,80.9703485 L22.6976963,80.9703485 Z M22.3523992,67.5285237 C22.3523992,67.5285237 22.5262898,66.9032369 20.9190435,66.9032369 L18.4758801,66.9032369 C18.4758801,66.9032369 17.5542597,66.7939038 17.2959079,68.155039 L17.2959079,73.3268616 C17.2959079,73.3268616 17.3567696,74.3784245 18.3019894,74.3784245 L20.1129362,74.3784245 C20.1129362,74.3784245 20.3700459,74.3784245 20.5737464,74.6621991 C20.7699944,74.9447453 21.9785343,76.195319 21.9785343,76.195319 C21.9785343,76.195319 22.3523992,76.7346135 22.3523992,76.0245628 L22.3523992,67.5285237 Z M53.986832,80.7787085 C53.986832,80.7787085 54.019126,80.9703485 53.7297223,80.9715769 L50.9064836,80.9715769 C50.9064836,80.9715769 50.7127198,81.0882808 50.7127198,80.8487308 L50.7127198,64.6576094 C50.7127198,64.6576094 50.5996909,64.4020894 50.9735557,64.4020894 L59.4743237,64.4020894 C59.4743237,64.4020894 62.4329486,64.3480371 62.4329486,66.9032369 L62.4329486,74.3784245 C62.4329486,74.3784245 62.635407,77.0122458 59.5053756,77.0122458 L55.2823173,77.0122458 C55.2823173,77.0122458 54.0153998,76.8242912 53.986832,77.7579219 L53.986832,80.7787085 Z M55.5083751,66.9032369 C53.8998867,66.9032369 54.0725353,67.5285237 54.0725353,67.5285237 L54.0725353,76.0245628 C54.0725353,76.7346135 54.4464002,76.195319 54.4464002,76.195319 C54.4464002,76.195319 55.6524559,74.9447453 55.8524302,74.6621991 C56.0548885,74.3784245 56.3132403,74.3784245 56.3132403,74.3784245 L58.1241871,74.3784245 C59.070649,74.3784245 59.1315107,73.3268616 59.1315107,73.3268616 L59.1315107,68.155039 C58.8731589,66.7926753 57.9515385,66.9032369 57.9515385,66.9032369 L55.5083751,66.9032369 Z M-5.82645043e-13,59.6307453 C-5.82645043e-13,59.6307453 10.3700923,59.6872545 10.627202,59.6872545 C10.888038,59.6872545 10.8309025,59.8874938 10.8309025,59.8874938 L8.56162966,62.3014204 C8.56162966,62.3014204 4.22554245,62.2731658 3.93613875,62.3014204 C3.64673505,62.329675 3.67778695,62.6417042 3.67778695,62.6417042 L3.67778695,68.1832937 C3.76349019,68.6390528 4.10754523,68.3233383 4.10754523,68.3233383 L5.6290883,66.5629531 L10.2856311,66.5629531 C10.627202,66.5629531 10.6011184,66.8749823 10.6011184,66.8749823 L10.6011184,68.9768797 C10.6011184,69.2348566 10.2856311,69.2348566 10.2856311,69.2348566 L4.94097821,69.2348566 C3.81938361,69.2348566 3.64673505,70.2839627 3.64673505,70.2839627 C3.64673505,70.2839627 3.6181673,73.4411085 3.64673505,73.95092 C3.67778695,74.4607315 3.81938361,74.3784245 3.81938361,74.3784245 L10.8309025,74.3784245 C11.2047673,74.3784245 11.2631449,74.7162514 11.2631449,74.7162514 L11.2631449,76.5356028 C11.2631449,76.9029127 11.0023089,77.0110174 11.0023089,77.0110174 L-5.82645043e-13,77.0110174 L-5.82645043e-13,59.6307453 Z M47.0312066,64.400861 C47.3765037,64.400861 47.2895584,64.6563809 47.2895584,64.6563809 L47.2895584,76.5614005 C47.2895584,76.9618789 47.0610164,77.0097889 47.0610164,77.0097889 L44.1893368,77.0097889 C43.8154719,77.0097889 43.8701233,76.592112 43.8701233,76.592112 L43.8701233,64.6551525 C43.8701233,64.3455802 44.2154204,64.3996325 44.2154204,64.3996325 L47.0312066,64.400861 Z M44.7097666,59.385053 L46.6200795,59.385053 C47.1939186,59.385053 47.4025873,60.2916576 47.4025873,60.2916576 L47.4025873,61.1245544 C47.4025873,62.0311589 46.5244396,62.1454058 46.5244396,62.1454058 L44.5731383,62.1454058 C43.8862703,62.1454058 43.7533681,61.2559998 43.7533681,61.2559998 L43.7533681,60.3518522 C43.7533681,59.5361538 44.7097666,59.385053 44.7097666,59.385053 Z M157.871674,40.1908904 C157.631867,40.0674986 157.074409,40.1205455 156.799447,39.6581144 C156.57094,39.2648749 154.975156,38.425349 154.568363,38.0540202 C154.735349,38.2073951 153.325384,38.3319402 153.138309,38.3319402 C152.31719,38.3319402 153.184764,38.4207362 151.247475,38.2408378 C150.53182,38.1704929 149.089211,37.2871455 148.635963,37 C146.124895,37.5835166 144.69233,38.1335906 140.397147,40.2750737 C138.341837,41.2979576 135.9174,42.1605474 133.622284,42.808643 C132.680633,43.11078 131.625984,43.3783213 130.458337,43.5905091 C128.896453,43.9191697 127.548009,44.1094469 126.655324,44.1313576 C124.936497,44.169413 122.955264,43.94454 121.000397,43.7000626 C118.658826,43.47173 116.012159,43.1776653 113.27635,42.9989201 L111.501024,42.8870602 C110.667656,42.8567184 109.833921,42.8355749 109,42.8236345 C111.742903,43.6589636 114.491746,44.4777497 117.246349,45.2799397 C120.25461,46.1448359 122.577348,46.3927728 125.586864,46.8840339 C128.597635,47.3776013 130.377983,46.2036489 132.975684,45.0977349 C135.579662,43.986055 137.488074,43.3045168 139.814579,42.441927 C142.139829,41.5793371 144.947203,40.5922023 146.310714,39.9763962 C147.679246,39.3605901 149.371706,39.6511952 149.969341,39.7584423 C150.733961,39.8979789 151.989495,39.9763962 153.221175,39.8530043 C154.452854,39.7296124 155.668211,40.1574478 156.231946,40.3742484 C157.080687,40.7144409 157.253951,40.7490368 157.631867,40.6544748 C158.006016,40.5599128 158.111481,40.3142823 157.871674,40.1908904 Z M89.1536383,6.19066501 C88.2717236,5.60158074 87.9604595,4.46959042 88.289016,4.10390887 C88.9807139,3.33510397 90.0182606,2.95070153 90.8828829,2.7585003 C91.5745808,2.56629908 91.2287318,0.90013912 90.537034,1.28454157 C88.9807139,1.86114524 86.599297,3.11918961 86.5585362,4.79907823 C86.521481,6.19066501 89.2820965,9.26838071 90.537034,8.84404035 C92.361387,8.22749876 90.0528455,6.79347794 89.1536383,6.19066501 Z M103.737346,2.7335391 C102.52564,5.03995379 101.748715,0.858953143 100.192395,1.43306069 C99.3277724,1.81746314 98.4631501,2.87207375 97.9443768,4.02777722 C97.423133,5.75883629 98.1494158,8.61814151 99.7057359,8.81034273 C101.264526,9.00379201 102.036511,6.40782743 103.592831,6.60002866 C104.461159,6.79222988 104.688431,8.64185464 105.898902,8.64185464 C106.417675,8.64185464 106.374444,7.39254669 105.855671,7.20034547 C104.992284,6.62623792 103.51378,6.1195256 103.858393,4.77411703 C104.030083,3.81311091 105.744505,2.55257042 105.511057,1.62650998 C105.21091,0.42338024 103.853453,2.51762474 103.737346,2.7335391 Z M100.365319,2.87332181 C101.057017,2.48891937 101.60667,3.71825836 101.953754,4.4858152 C102.576282,5.87240974 101.087896,7.17663233 100.397434,7.17663233 C98.8929909,6.69987345 98.6990685,3.80187837 100.365319,2.87332181 Z M112.530555,4.51951281 C112.530555,5.74136345 111.96855,8.01408052 113.004862,8.53701761 C114.389493,9.41065954 116.206435,8.88647438 117.419376,8.01283246 C117.588595,7.66337569 117.069822,6.52888924 116.722738,6.70236957 C115.859351,6.70236957 114.54883,7.63716643 114.201746,7.11298127 C112.991275,5.88738646 115.598729,0.675488339 113.179022,1.02120093 C112.487324,1.19842543 112.530555,3.64587089 112.530555,4.51951281 Z M122.281024,4.63558238 C122.556468,5.04619409 122.88626,5.5965885 122.715806,5.94604527 C122.541646,6.64495881 121.531273,7.66337569 122.054987,8.36603341 C122.226676,8.71299406 122.918374,8.88772244 123.437148,8.71299406 C124.12761,8.01408052 124.343766,6.48520715 124.692085,5.61156522 C125.382548,4.21249008 127.461347,2.90327525 127.511989,1.63275028 C127.514459,1.5541225 126.418859,1.06737915 126.418859,1.06737915 C125.272617,1.84242434 124.836601,3.53728968 123.824993,4.38721846 C122.961605,3.33884815 122.570055,0.497015774 121.0125,1.19842543 C119.63281,1.72635477 121.594267,3.58970819 122.281024,4.63558238 Z M130.934658,4.83652003 C130.934658,6.24682771 130.415885,7.80690258 131.455902,9.03000127 C131.455902,9.20472966 132.146365,9.03000127 132.490978,9.03000127 C132.843003,9.03000127 132.667608,8.50581612 132.667608,8.50581612 C132.844238,6.75853226 132.490978,5.01124841 132.667608,3.2627165 C132.844238,2.7397794 133.738505,2.52386504 134.254808,2.52386504 C134.773581,2.69859343 135.002089,3.96787034 134.829164,4.4920555 C134.489491,5.18847292 133.555699,5.10734902 133.039396,5.6340303 C133.239494,5.22341859 132.781244,6.20564173 133.530995,6.58380388 C134.740231,6.93326065 136.158212,6.13575038 136.500355,4.73792329 C136.84744,3.5148246 136.647341,2.21559425 135.43687,1.51668071 C134.052239,0.992495552 132.320524,0.992495552 131.282977,2.04086586 C130.764204,2.91450779 130.934658,3.9628781 130.934658,4.83652003 Z M142.263681,5.71016195 C142.608294,6.05961872 142.999845,5.96975841 142.999845,6.49643969 C142.652761,7.37008161 141.121144,7.20408965 140.425741,7.90674737 C140.251581,8.25495608 140.425741,8.78038929 140.770354,8.9513735 C142.154985,9.128598 143.298757,8.33108773 144.509228,7.97788678 C144.27084,8.10144471 145.418317,7.78942974 145.418317,6.80221436 C145.418317,5.27334099 142.547771,4.94135706 142.547771,3.54352998 C142.547771,2.84461644 144.552459,2.39032263 145.073703,1.86738554 C145.377556,1.25458813 143.805179,1.12104572 144.509228,1.12104572 C142.608294,0.948813456 140.444268,1.73259507 140.444268,3.83557599 C140.273814,4.53074535 141.744907,5.18472874 142.263681,5.71016195 Z M153.600114,1.06737915 C152.560097,0.89389882 151.856047,1.05240243 150.991425,1.57783564 C149.659907,2.38283427 148.928683,4.21124202 149.102843,5.61031716 C149.621616,7.70705778 151.869634,9.45434164 153.944728,8.58069971 C155.503518,7.88553035 156.369376,5.95977393 155.848132,4.21249008 C155.503518,2.98939138 155.158905,1.41683592 153.600114,1.06737915 Z M151.565781,3.25148396 C151.993152,2.64991909 153.2555,2.46520623 153.776744,2.814663 C155.158905,3.68830492 154.982275,5.78504555 154.116417,7.18287263 C153.775509,7.88553035 152.210543,7.78942974 151.783172,7.32889564 C150.774034,6.23684323 150.487474,4.78035733 151.565781,3.25148396 Z M69.0882251,37.2436432 C66.4498919,36.2065055 63.4125973,36.4136834 60.9793031,35.1606313 C59.967695,34.5366013 61.5870091,33.5007116 61.7920481,32.2538998 C61.7920481,32.0442257 61.5870091,31.840792 61.3856756,31.840792 C58.7510479,32.0442257 56.5240279,33.9150675 54.0907337,34.7475235 C52.0613417,35.3715534 50.2691032,35.7859093 48.2137724,35.9943353 C47.9605616,36.0205445 47.1070559,36.2626682 46.9020169,36.280141 C45.0455493,36.4561174 43.7560269,37.2423952 42.1354777,38.2820291 C40.5149285,39.5288409 39.0932424,41.8140386 39.9072225,43.8933064 C40.3111246,44.5160882 41.3214975,44.5160882 42.1354777,44.7232662 C42.1354777,44.7232662 42.0910114,44.6895686 42.0910114,44.8992426 C41.8896779,44.6895686 41.7291052,44.9304441 41.5265365,44.9304441 C40.3111246,45.553226 39.0932424,46.1760079 38.0828694,47.2168899 C37.8778304,47.4228197 38.0952212,47.699889 38.2817326,47.6324938 C38.4843012,47.5601063 42.6085496,45.4833347 42.9457523,45.970078 C41.8365654,46.7264023 40.4964008,47.3416958 38.8906737,48.0456016 C38.4867716,48.2565238 38.2817326,49.2961576 38.8906737,49.0864836 C42.7444188,48.4624536 45.9842821,47.4228197 49.6329882,46.38693 C53.0803608,45.1401182 56.3745718,44.8780256 60.0343944,44.5847315 C66.924199,44.031841 72.8036306,43.2018812 79.487161,44.8618008 C81.7215921,45.4845827 81.5165531,48.8805537 82.329298,50.9573254 C82.5281612,51.1657514 83.0691677,50.5429695 83.2717363,50.5429695 C84.2833444,48.8805537 84.2833444,47.2181379 83.8794423,45.5544741 C83.8794423,45.1413663 83.0704029,44.9316922 82.8690694,44.5173363 L82.8690694,43.8945544 C85.3011284,42.8549205 86.5177755,40.1528709 86.3127365,37.6604952 C86.3127365,37.4520692 86.1076975,37.4520692 85.9088343,37.4520692 C83.8794423,38.906059 82.8678342,40.7756527 81.4473833,42.6452465 C77.5961085,40.3600488 73.3359909,38.9185396 69.0882251,37.2436432 Z M156.418511,45.8298711 C157.088171,45.8298711 157.660563,46.0666393 158.133192,46.5340735 C158.60582,46.9978464 158.839017,47.5592557 158.839017,48.2170808 C158.839017,48.8834492 158.607067,49.4509607 158.13818,49.9147336 C157.689012,50.3715185 157.066191,50.6252371 156.418511,50.6152747 C155.76925,50.6258597 155.144644,50.3721497 154.693853,49.9147336 C154.23306,49.4663254 153.979825,48.8529084 153.993017,48.2170808 C153.993017,47.5592557 154.22746,46.9978464 154.696348,46.5340735 C155.146072,46.0761832 155.76961,45.8212147 156.418511,45.8298711 Z M157.811455,48.7528605 L157.346309,48.7528605 C157.290192,48.957897 157.195417,49.1177766 157.052007,49.226397 C156.908598,49.3350175 156.732765,49.3887175 156.520768,49.3887175 C156.194043,49.3887175 155.9384,49.2715539 155.767555,49.038447 C155.591723,48.8053401 155.506924,48.5197537 155.506924,48.1755854 C155.506924,47.9363762 155.558053,47.7142534 155.665298,47.509217 C155.810623,47.2009415 156.131783,47.0090754 156.478369,47.023476 C156.741494,47.023476 156.941021,47.0881601 157.081936,47.224851 C157.217857,47.3529453 157.303856,47.5234352 157.325109,47.7069307 L157.787761,47.7069307 C157.756585,47.2565828 157.547082,46.9343827 157.164241,46.7403304 C156.931051,46.6303477 156.674839,46.5751828 156.416017,46.5792304 C155.979552,46.5792304 155.624146,46.7330077 155.351044,47.0430032 C155.085424,47.3542192 154.949497,47.7374421 154.949497,48.198774 C154.949497,48.6918378 155.095401,49.0897061 155.397184,49.3874971 C155.701462,49.6828472 156.061857,49.8341836 156.488345,49.8341836 C156.825046,49.8341836 157.114359,49.7402086 157.355038,49.5498176 C157.599458,49.3594266 157.752844,49.0945879 157.811455,48.7528605 Z M159.253034,48.2134195 C159.253034,47.4481943 158.974944,46.7964713 158.420011,46.2570303 C157.894565,45.7300826 157.170751,45.4379024 156.418511,45.4490891 C155.631628,45.4490891 154.964461,45.7200301 154.409528,46.2570303 C153.869569,46.7694428 153.56992,47.4774197 153.581493,48.2134195 C153.581493,48.9835265 153.859583,49.6376903 154.409528,50.1844541 C154.935833,50.7154679 155.662686,51.0104315 156.418511,50.999718 C157.172034,51.0098616 157.896351,50.7148284 158.420011,50.1844541 C158.974944,49.6376903 159.253034,48.9835265 159.253034,48.2134195 Z" id="Combined-Shape"></path>
                <path d="M79.9882261,44.4437566 C80.0335936,44.3161303 79.9441188,44.1864454 79.7840723,44.1411587 L76.5100493,43.3568743 C75.133901,43.065598 71.9846387,42.4953965 66.360326,41.9601893 C58.8734243,41.247952 53.3020403,41.7028782 50.804306,42.3101325 L49.875532,42.459373 C49.8616697,42.4614315 49.851588,42.4748116 49.8364655,42.4789286 C49.2630704,42.110459 49.1748558,41.8912299 49.1735956,41.8891714 L48.0116829,40.0766717 C47.9734718,40.0164848 47.8885056,39.9867445 47.8087892,40.0056538 C47.7321437,40.0228076 47.6790003,40.0796957 47.6789877,40.1446018 L47.7886259,41.6020122 L47.9209478,42.9132698 C47.9209478,43.5441968 47.1950675,44.8986827 47.1534806,44.9748468 L46.209584,45.753985 C46.1765997,45.7809843 46.1584139,45.817745 46.1591757,45.8558802 C46.1591652,45.9144324 46.2025376,45.967168 46.268909,45.9893026 C46.3352804,46.0114372 46.4114522,45.9985692 46.4616258,45.9567462 L47.4294663,45.1580524 L48.3847048,44.4808094 L48.8270381,44.1133691 L48.9202936,44.7319451 L48.5132461,45.6973765 C48.4853537,45.7649275 48.5230919,45.8388996 48.6014607,45.8702896 C48.679305,45.902246 48.7740554,45.8830091 48.8245177,45.8250029 L49.4483212,45.1045316 L49.8200828,43.7150514 L49.8780524,42.9359132 C49.8868739,42.934884 49.8919147,42.9420887 49.9019964,42.9410594 L50.9744343,42.7712341 C53.6082711,42.1310439 59.3674262,41.7800715 66.2922747,42.4398173 C71.8825618,42.972966 75.0003189,43.5359628 76.3626048,43.8251806 L79.6051226,44.601231 C79.7991948,44.6403423 79.9428586,44.5713829 79.9882261,44.4437566 Z M42.3243597,43.4186289 C41.6980358,44.0691115 42.14541,44.8060507 42.2928544,45.0468939 C42.6633559,45.371106 43.0830055,45.5049078 43.4396446,45.4565333 C43.6950214,45.4246555 43.913984,45.2906279 44.0231214,45.0993854 C44.3520359,44.6948923 44.2638213,44.2955454 44.1869486,43.9425145 L44.1226779,43.511261 C44.0395041,43.2663007 44.0521062,43.1849904 44.0710093,43.1644055 C44.13528,43.0913292 44.5221642,43.0892707 44.7540426,43.0882414 L45.3501215,43.0645688 L45.8731082,42.9420887 C46.0027323,42.9111633 46.089817,42.8120176 46.0841455,42.7018232 C46.078474,42.5916288 45.9815088,42.4988017 45.8491642,42.4768701 C44.8094918,42.3029278 43.2594347,42.4449635 42.3243597,43.4186289 Z M43.4837519,43.2940903 C43.4913132,43.3846639 43.5064357,43.4783251 43.5492828,43.5863958 C43.5341603,43.5122902 43.6072524,44.0279418 43.6072524,44.0279418 C43.6765639,44.3439199 43.7320131,44.5929971 43.5127368,44.8636884 C43.4610682,44.9449987 43.4144405,44.9727883 43.3426085,44.9830808 C43.2039855,45.0026364 42.9708469,44.9439695 42.7641726,44.7720856 C42.6553384,44.5923348 42.5935361,44.3960411 42.5827025,44.1957086 C42.5827025,44.0361757 42.6356313,43.8704673 42.7855962,43.7140222 C42.9796683,43.5143487 43.2392714,43.414512 43.4837519,43.2940903 Z" id="Shape"></path>
                <path d="M73.8115425,10.7783463 C74.0570681,11.7564271 74.863795,14.146743 73.8768547,13.9469333 C72.4932031,13.3512044 72.0335986,10.9769226 72.0335986,9.19466953 C72.0335986,8.99856002 72.2319542,8.60264082 72.6262466,8.79998373 C73.2188945,9.19590293 73.6143964,9.99020811 73.8115425,10.7783463 Z M71.6380968,11.768761 C71.6380968,12.5630662 72.2307448,14.4748256 71.240176,14.2787161 C70.2520262,14.077673 70.4528008,12.1486461 70.4528008,11.1594648 C70.4528008,10.9633553 70.8458837,10.7795797 71.0454488,10.7795797 C71.4135762,10.9651159 71.6442058,11.350057 71.6380968,11.768761 Z M72.3468554,7.44818484 C71.110761,8.52247027 70.2048563,10.1369819 69.2167065,11.3247395 C68.7655683,10.0124092 69.0413311,7.94277549 69.8347537,6.95359419 C70.4274016,5.9631795 72.8717722,4.54724417 74.9799057,5.14050627 C74.3872577,5.53889226 72.8826575,6.97949545 72.3468554,7.44818484 Z M75.5580398,8.85055285 C75.7358342,9.20453668 75.0645697,9.59058873 74.3388783,9.19590293 C73.8200089,8.9134559 73.0205389,8.40406453 73.2188945,7.61345952 C73.4136217,7.02019742 74.0086887,6.82162113 74.6013367,7.21877372 C74.7996923,7.41735001 75.3608936,8.45340025 75.5580398,8.85055285 Z M79.5203148,10.3158239 L79.5227338,10.2923894 C79.5227338,10.0654451 79.2735798,9.94210578 78.7982519,9.72749537 C78.1548055,9.43271441 76.6429485,8.73831407 75.6269805,10.1480824 C75.1032732,10.874551 74.9520875,11.1261632 75.1782613,11.3383068 C75.249621,11.4061434 75.3790359,11.4123104 75.5374786,11.342007 L76.2498656,11.520849 C77.2948612,11.7983625 77.9298412,11.4813804 78.4934615,11.2051004 L78.9796748,10.9855564 C79.2905126,10.8708508 79.6049788,10.7154433 79.6049788,10.4255959 L79.6049788,10.4181955 C79.6037694,10.3614594 79.5420856,10.3589927 79.5203148,10.3158239 Z M76.387747,10.9645887 L75.8579923,10.8326156 L76.0817471,10.4897323 C76.3369486,10.1345151 76.6344821,9.96184007 76.9549958,9.9014038 C76.8599522,10.0671256 76.8102483,10.2558154 76.811067,10.447797 C76.811067,10.6858418 76.8775887,10.8967521 76.9816044,11.0496928 C76.7810664,11.0451439 76.5817472,11.0165799 76.387747,10.9645887 Z M78.7897855,10.4453302 L78.2479359,10.6870752 C78.1138336,10.754749 77.977484,10.8176894 77.8391298,10.8757844 C77.8970201,10.7403224 77.9274636,10.5943256 77.9286317,10.4465636 C77.9277577,10.2792642 77.8884027,10.1145078 77.8137306,9.96554025 C78.1810187,10.0713333 78.5355778,10.218608 78.870821,10.4046282 C78.8439959,10.4185787 78.8169814,10.4321474 78.7897855,10.4453302 Z M76.1168222,6.62304483 C77.1073909,6.62304483 77.9455645,6.70568217 78.4221019,7.08556726 C78.8647736,7.4370843 79.1477933,8.40406453 78.2926869,8.40406453 C77.4351616,8.40406453 76.7094702,8.00937872 75.9874072,7.7441992 C75.2617158,7.48148646 74.4041905,6.62304483 76.1168222,6.62304483 Z M86.4385728,25.7677732 C86.1289445,27.8004051 85.7431186,29.4790532 84.1671588,29.4235505 C82.3686536,29.3668144 81.5208041,28.5996439 80.2980141,26.9037283 C80.2054988,26.7756656 80.0286974,26.7483313 79.9031171,26.8426753 C79.7775367,26.9370193 79.7507322,27.1173155 79.8432475,27.2453782 C81.1507015,29.0596995 82.1291754,29.9354086 84.147807,29.9983117 C86.3502804,30.0747821 86.7385253,27.536459 86.9949362,25.8578109 C87.014333,25.7548051 86.9771586,25.6492041 86.8979477,25.5822968 C86.8187368,25.5153894 86.7100722,25.4978039 86.6144404,25.5364161 C86.5188087,25.5750282 86.4514009,25.6637043 86.4385728,25.7677732 Z" id="Shape"></path>
            </g>
        </g>
    </g>
</svg>