<?xml version="1.0" encoding="UTF-8"?>
<svg width="429px" height="47px" viewBox="0 0 429 47" version="1.1" xmlns="http://www.w3.org/2000/svg" xmlns:xlink="http://www.w3.org/1999/xlink">
    <!-- Generator: Sketch 52.5 (67469) - http://www.bohemiancoding.com/sketch -->
    <title>divers logo</title>
    <desc>Created with Sketch.</desc>
    <g id="Page-1" stroke="none" stroke-width="1" fill="none" fill-rule="evenodd">
        <g id="v2" transform="translate(-60.000000, -867.000000)">
            <g id="divers-logo" transform="translate(60.000000, 867.000000)">
                <path d="M159,6.08333283 L155.310196,9.91664306 L150.657835,9.91664306 C150.657835,9.91664306 149.053572,9.74997739 149.053572,11.5832997 L149.053572,24.749887 C149.053572,24.749887 149.053572,26.2498779 150.497409,26.2498779 L158.919787,26.2498779 L158.919787,29.9998553 L147.609736,29.9998553 C147.609736,29.9998553 144.000145,30.0831882 144.000145,26.2498779 L144.000145,9.66664456 C144.000145,9.66664456 143.919932,6 147.529523,6 L159,6.08333283 Z" id="Path" fill="#BABCC5"></path>
                <path d="M217.052945,26.25 L207.000148,26.25 L207,30 L220.485608,30 C224,30 223.91827,26.5 223.91827,26.5 L223.91827,19.3333333 C223.91827,15.9166667 220.567338,15.9166667 220.567338,15.9166667 L213.538553,15.9166667 C212.067412,15.9166667 212.067412,14.4166667 212.067412,14.4166667 L212.067412,11.5833333 C212.067412,9.75 213.702013,9.91666667 213.702013,9.91666667 L220.240417,9.91666667 L224,6.08333333 L210.596271,6 C206.918418,6 207.000148,9.66666667 207.000148,9.66666667 L207.000148,15.9166667 C207.000148,19.6666667 210.678001,19.6666667 210.678001,19.6666667 L217.706786,19.6666667 C217.706786,19.6666667 219.014466,19.4166667 219.014466,21 L219.014466,25 C218.932736,24.8333333 219.259657,26.25 217.052945,26.25 Z" id="Path" fill="#BABCC5"></path>
                <path d="M422.052945,26.25 L412.000148,26.25 L412,30 L425.485608,30 C429,30 428.91827,26.5 428.91827,26.5 L428.91827,19.3333333 C428.91827,15.9166667 425.567338,15.9166667 425.567338,15.9166667 L418.538553,15.9166667 C417.067412,15.9166667 417.067412,14.4166667 417.067412,14.4166667 L417.067412,11.5833333 C417.067412,9.75 418.702013,9.91666667 418.702013,9.91666667 L425.240417,9.91666667 L429,6.08333333 L415.596271,6 C411.918418,6 412.000148,9.66666667 412.000148,9.66666667 L412.000148,15.9166667 C412.000148,19.6666667 415.678001,19.6666667 415.678001,19.6666667 L422.706786,19.6666667 C422.706786,19.6666667 424.014466,19.4166667 424.014466,21 L424.014466,25 C423.932736,24.8333333 424.177927,26.25 422.052945,26.25 Z" id="Path" fill="#BABCC5"></path>
                <polygon id="Path" fill="#BABCC5" points="233.737557 10 240.253394 10 244 6 230.642534 6 226 6 226 10"></polygon>
                <path d="M178,6.08333283 L174.290359,9.91664306 L169.612985,9.91664306 C169.612985,9.91664306 168.000097,9.74997739 168.000097,11.5832997 L168.000097,24.749887 C168.000097,24.749887 168.000097,26.2498779 169.451696,26.2498779 L177.919356,26.2498779 L177.919356,29.9998553 L166.629143,29.9998553 C166.629143,29.9998553 163.000146,30.0831882 163.000146,26.2498779 L163.000146,9.66664456 C163.000146,9.66664456 162.919502,6 166.548499,6 L178,6.08333283 Z" id="Path" fill="#BABCC5"></path>
                <path d="M166,6.08333283 L169.689804,9.91664306 L174.342165,9.91664306 C174.342165,9.91664306 175.946428,9.74997739 175.946428,11.5832997 L175.946428,24.749887 C175.946428,24.749887 175.946428,26.2498779 174.502591,26.2498779 L166.080213,26.2498779 L166.080213,29.9998553 L177.390264,29.9998553 C177.390264,29.9998553 180.999855,30.0831882 180.999855,26.2498779 L180.999855,9.66664456 C180.999855,9.66664456 181.080068,6 177.470477,6 L166,6.08333283 Z" id="Path" fill="#BABCC5"></path>
                <path d="M189.9886,6 L189.9886,24.3972125 C189.9886,26.2369338 191.597778,26.0696864 191.597778,26.0696864 L195.298889,26.0696864 L199,29.9163763 L188.540339,30 C184.919687,30 185.000146,26.3205575 185.000146,26.3205575 L185.000146,6 L189.9886,6 Z" id="Path" fill="#BABCC5"></path>
                <rect id="Rectangle" fill="#BABCC5" x="198" y="6" width="5" height="24"></rect>
                <path d="M298.904152,6 L298.904152,28.4947735 L296.52061,26.0696864 L292.739819,26.0696864 C292.739819,26.0696864 291.095997,26.2369338 291.095997,24.3972125 L291.095997,6 L286,6 L286.000149,26.3205575 C286.000149,26.3205575 285.917958,30 289.616557,30 L298.904152,29.9163763 L298.904152,30 L304,30 L304,6 L298.904152,6 Z" id="Path" fill="#BABCC5"></path>
                <path d="M401.895652,14.6968641 L401.895652,11.5191638 C401.895652,9.59581882 400.721739,9.8466899 400.721739,9.8466899 L397.121739,9.8466899 L394.852174,7.42160279 L394.852174,29.9163763 L390,29.9163763 L390,6 L394.852174,6 L394.852174,6.08362369 L403.695652,6 C407.217391,6 406.747826,9.67944251 406.747826,9.67944251 L406.747826,16.6202091 C406.747826,16.6202091 406.591304,19.1289199 404.4,19.1289199 L402.286957,19.1289199 L408,30 L402.913043,30 L397.982609,20.71777 C397.982609,20.71777 397.513043,19.5470383 396.573913,19.4634146 L394.069565,19.4634146 L394.069565,15.6167247 L400.878261,15.6167247 C400.878261,15.6167247 401.895652,16.0348432 401.895652,14.6968641 Z" id="Path" fill="#BABCC5"></path>
                <path d="M330.011371,11.8536585 L330.011371,24.3972125 C330.011371,26.2369338 328.402198,26.0696864 328.402198,26.0696864 L324.701099,26.0696864 L321,29.9163763 L331.459627,30 C335.080267,30 334.999809,26.3205575 334.999809,26.3205575 L334.999809,9.17770035 C334.999809,9.17770035 335.080267,6 331.942379,6 L322.045963,6 L322.045963,9.8466899 L328.482656,9.8466899 C328.482656,9.8466899 330.011371,9.42857143 330.011371,11.8536585 Z" id="Path" fill="#BABCC5"></path>
                <rect id="Rectangle" fill="#BABCC5" transform="translate(318.500000, 18.000000) rotate(-180.000000) translate(-318.500000, -18.000000) " x="316" y="6" width="5" height="24"></rect>
                <rect id="Rectangle" fill="#BABCC5" transform="translate(341.500000, 18.000000) rotate(-180.000000) translate(-341.500000, -18.000000) " x="339" y="6" width="5" height="24"></rect>
                <rect id="Rectangle" fill="#BABCC5" x="232" y="6" width="5" height="24"></rect>
                <path d="M251.108108,20.2996516 C251.675676,19.7979094 252.324324,19.5470383 253.054054,19.5470383 L260.27027,19.5470383 L260.27027,15.7003484 L257.189189,15.7003484 L253.621622,15.7003484 L251.108108,18.2926829 L251.108108,9.93031359 L253.702703,9.93031359 L257.27027,9.93031359 L261,6.08362369 L250.621622,6 L246,6 L246,6.08362369 L246,9.93031359 L246,26.1533101 L246,30 L251.027027,30 L253.621622,30 L260.918919,30 L260.918919,26.1533101 L251.027027,26.0696864 L251.027027,20.2996516 L251.108108,20.2996516 Z" id="Path" fill="#BABCC5"></path>
                <path d="M377.108108,20.2996516 C377.675676,19.7979094 378.324324,19.5470383 379.054054,19.5470383 L386.27027,19.5470383 L386.27027,15.7003484 L383.189189,15.7003484 L379.621622,15.7003484 L377.108108,18.2926829 L377.108108,9.93031359 L379.702703,9.93031359 L383.27027,9.93031359 L387,6.08362369 L376.621622,6 L372,6 L372,6.08362369 L372,9.93031359 L372,26.1533101 L372,30 L377.027027,30 L379.621622,30 L386.918919,30 L386.918919,26.1533101 L377.027027,26.0696864 L377.027027,20.2996516 L377.108108,20.2996516 Z" id="Path" fill="#BABCC5"></path>
                <path d="M284,30 L275.544118,6 L272.5,6 L269.455882,6 L261,30 L266.327206,30 L267.849265,25.4006969 L267.933824,25.5679443 C268.525735,24.8989547 269.371324,24.4808362 270.301471,24.4808362 L276.8125,24.4808362 L278.672794,30 L284,30 Z M274.613971,20.6341463 L270.893382,20.6341463 L268.694853,22.8083624 L272.5,11.5191638 L275.544118,20.6341463 L274.613971,20.6341463 Z" id="Shape" fill="#BABCC5" fill-rule="nonzero"></path>
                <polygon id="Path" fill="#BABCC5" points="358 30 355.088235 30 347 6 352.095588 6 358 24.3972125"></polygon>
                <polygon id="Path" fill="#BABCC5" points="358 30 360.970803 30 369 6 363.861314 6 358 24.3972125"></polygon>
                <g id="Group">
                    <g transform="translate(0.000000, 4.051724)">
                        <path d="M88.3035335,11.75 C87.4024771,12.0741379 86.5833348,11.75 85.8461068,11.2637931 C85.0269646,10.7775862 84.2897366,10.1293103 83.716337,9.4 C82.4876236,7.77931034 80.8493391,7.29310345 78.965312,7.37413793 C78.1461698,7.37413793 78.0642555,7.13103448 78.228084,6.40172414 C78.5557409,4.78103448 79.5387116,3.72758621 80.7674249,2.67413793 C81.0950818,2.35 81.4227387,2.10689655 81.9142241,1.70172414 C80.7674249,1.37758621 79.7844542,1.05344828 78.8014835,0.810344828 C83.3886801,0.729310345 87.8939624,1.05344828 92.2354163,2.67413793 C93.0545585,2.99827586 92.8088159,3.56551724 92.7269016,4.05172414 C92.6449874,4.61896552 92.3992447,5.02413793 91.6620167,4.86206897 C90.1875607,4.53793103 88.8769331,4.86206897 87.6482197,5.67241379 C86.9109917,6.07758621 86.6652491,6.72586207 86.9109917,7.5362069 C87.3205628,9.07586207 87.0748202,9.64310345 85.6822784,10.4534483 C86.0918495,11.0206897 86.6652491,11.3448276 87.2386486,11.5068966 C87.4843913,11.6689655 88.0577909,11.1827586 88.3035335,11.75 Z" id="Path" fill="#BABCC5"></path>
                        <path d="M88.0577909,12.8844828 C87.4024771,13.4517241 86.6652491,13.4517241 85.928021,13.1275862 C85.7641926,13.0465517 85.6003641,12.8844828 85.6822784,12.7224138 C85.7641926,12.5603448 85.928021,12.6413793 86.0918495,12.7224138 C86.7471633,13.0465517 87.4024771,12.9655172 88.0577909,12.8844828 Z" id="Path" fill="#BABCC5"></path>
                        <path d="M88.3035335,11.75 C87.9758766,11.4258621 87.4843913,11.8310345 87.1567344,11.4258621 C87.730134,11.4258621 88.3854478,11.5068966 88.8769331,11.0206897 C89.1226758,11.3448276 88.9588473,11.4258621 88.7131047,11.587931 C88.5492762,11.587931 88.467362,11.6689655 88.3035335,11.75 Z" id="Path" fill="#BABCC5"></path>
                        <path d="M89.1226758,11.9931034 C88.9588473,12.4793103 88.7950189,12.6413793 88.467362,12.7224138 C88.467362,12.3172414 88.7131047,12.2362069 89.1226758,11.9931034 Z" id="Path" fill="#BABCC5"></path>
                        <path d="M35.8784301,28.5241379 C35.468859,28.7672414 34.9773737,29.0103448 34.4039741,29.0103448 L34.4039741,28.9293103 C34.731631,28.5241379 35.1412021,28.5241379 35.5507732,28.2810345 C35.7146017,28.362069 35.8784301,28.362069 35.8784301,28.5241379 Z" id="Path" fill="#00AEEF"></path>
                        <path d="M35.8784301,28.5241379 C35.7965159,28.4431034 35.7146017,28.362069 35.6326875,28.2810345 C35.9603444,28.1189655 36.2880013,28.037931 36.6156582,27.8758621 C36.6975724,27.9568966 36.7794866,28.037931 36.8614008,28.1189655 C36.6156582,28.362069 36.2880013,28.4431034 35.8784301,28.5241379 Z" id="Path" fill="#00AEEF"></path>
                        <path d="M34.4858883,28.9293103 C34.4858883,28.9293103 34.4858883,29.0103448 34.4858883,29.0103448 C34.3220599,29.3344828 33.994403,29.3344828 33.5029176,29.4155172 C33.8305745,29.0103448 34.0763172,28.9293103 34.4858883,28.9293103 Z" id="Path" fill="#00AEEF"></path>
                        <path d="M98.2151546,22.9327586 C98.2970689,22.6086207 97.6417551,22.7706897 97.4779266,22.8517241 C95.1024141,23.4189655 92.7269016,23.9862069 90.3513891,23.8241379 C89.1226758,23.7431034 87.9758766,23.5810345 86.7471633,23.662069 C86.2556779,23.662069 85.6822784,23.9051724 85.4365357,23.7431034 C85.0269646,23.4189655 85.5184499,22.8517241 85.5184499,22.4465517 C85.5184499,22.2034483 85.4365357,21.9603448 85.4365357,21.7982759 C85.2727072,21.2310345 85.5184499,21.0689655 86.0918495,20.987931 C86.7471633,20.987931 87.4843913,20.987931 88.1397051,20.8258621 C91.4981883,20.2586207 94.2832719,18.3948276 97.0683555,16.7741379 C97.1502697,16.6931034 97.3140982,16.612069 97.3140982,16.5310345 C97.4779266,15.3965517 97.6417551,14.262069 97.8055835,12.9655172 C97.0683555,13.2896552 96.7406986,13.7758621 96.3311275,14.1810345 C95.5119853,15.1534483 94.6109288,16.0448276 93.3003012,16.3689655 C91.0886172,16.9362069 88.7950189,17.1793103 86.5014206,17.0982759 C86.0918495,17.0982759 85.7641926,16.6931034 85.8461068,16.287931 C86.0099353,15.4775862 86.0099353,14.6672414 85.7641926,13.8568966 C85.6003641,16.0448276 84.6993077,18.0706897 83.9620797,20.0965517 C83.3067659,21.9603448 83.3886801,23.7431034 83.8801654,25.5258621 C84.0439939,26.1741379 84.3716508,26.4172414 85.0269646,26.4172414 C87.0748202,26.2551724 89.1226758,26.1741379 91.1705314,26.0931034 C91.5801025,26.0931034 91.9077594,26.012069 92.3173305,25.9310345 C92.7269016,25.85 97.3140982,24.9586207 97.6417551,24.7965517 C97.3140982,25.2827586 92.6449874,26.2551724 92.1535021,26.4172414 C89.6141611,27.3896552 86.8290775,27.2275862 84.1259081,27.2275862 C83.5525085,27.2275862 83.3067659,26.9034483 83.0610232,26.4982759 C81.6684814,23.4189655 81.4227387,20.4206897 83.2248516,17.3413793 C83.716337,16.45 84.2897366,15.6396552 84.453565,14.5862069 C84.6993077,13.3706897 85.1088788,12.0741379 84.2078223,11.0206897 C82.6514521,9.23793103 80.7674249,8.18448276 78.228084,8.67068966 C77.490856,8.83275862 76.7536279,8.99482759 75.9344857,9.15689655 C76.2621426,8.18448276 76.1802284,7.37413793 75.5249146,6.72586207 C74.7057723,5.99655172 73.7228017,5.99655172 72.739831,6.32068966 C67.0877495,8.18448276 61.435668,10.2103448 55.7016724,12.1551724 C54.8825301,12.3982759 54.5548732,12.9655172 54.6367874,13.7758621 C54.7187017,14.9103448 55.3740155,15.5586207 56.6027288,15.7206897 C55.8655008,16.3689655 55.4559297,17.0982759 54.9644443,17.8275862 C54.7187017,18.1517241 54.5548732,18.4758621 54.1453021,18.637931 C51.3602185,19.4482759 48.8208775,20.7448276 46.0357939,21.6362069 C44.5613379,22.1224138 43.9060241,21.7172414 43.2507103,20.3396552 C42.5134823,18.8810345 41.5305116,17.5844828 40.1379698,16.6931034 C38.4177711,15.5586207 36.6975724,14.5051724 34.8954594,13.5327586 C34.0763172,13.0465517 33.4210034,12.4793103 32.8476038,11.75 C32.6018612,11.4258621 32.3561185,11.0206897 32.519947,10.5344828 C32.9295181,9.31896552 32.519947,8.9137931 31.0454909,8.67068966 C29.0795495,8.34655172 27.1136082,8.34655172 25.229581,8.10344828 C19.4955853,7.29310345 13.8435039,6.23965517 8.60099353,3.56551724 C8.35525085,3.48448276 8.10950818,3.32241379 7.86376551,3.24137931 C7.69993706,3.16034483 7.45419439,3.16034483 7.37228017,3.32241379 C7.29036594,3.48448276 7.45419439,3.64655172 7.53610861,3.72758621 C8.10950818,4.29482759 8.8467362,4.78103448 9.58396422,5.10517241 C13.3520185,6.80689655 17.3658155,7.86034483 21.2976983,9.23793103 C25.3934095,10.6965517 29.5710349,11.912069 32.6018612,15.3155172 C33.9124888,16.7741379 35.2231163,18.1517241 36.4518297,19.6103448 C37.7624573,21.15 38.8273422,22.7706897 39.7283987,24.5534483 C39.482656,24.6344828 39.3188275,24.6344828 39.1549991,24.6344828 C37.4348004,24.7965517 35.7965159,25.1206897 34.3220599,26.012069 C33.0933465,26.8224138 31.7827189,27.4706897 30.3901771,28.037931 C28.9157211,28.6862069 27.5231793,29.0103448 25.966809,28.4431034 C24.6561814,27.9568966 24.2466103,28.362069 23.5093823,29.7396552 C22.9359827,30.712069 22.2806689,31.6034483 21.6253552,32.4948276 C19.8232422,34.6827586 18.0211293,36.9517241 15.3998741,38.4103448 C11.4679914,40.6793103 7.29036594,41.7327586 2.70316939,41.3275862 C2.12976983,41.3275862 1.55637026,41.3275862 0.982970689,41.3275862 C0.819142241,41.3275862 0.573399568,41.3275862 0.491485344,41.5706897 C0.40957112,41.8948276 0.655313792,41.9758621 0.901056465,41.9758621 C1.39254181,42.0568966 1.96594138,42.137931 2.45742672,42.2189655 C5.48825301,42.3810345 8.5190793,42.6241379 11.5499056,41.8137931 C16.8743302,40.4362069 21.5434409,37.6810345 25.966809,34.4396552 C28.1784931,32.8189655 30.5540056,31.5224138 33.257175,31.1172414 C33.5848319,31.0362069 33.9124888,30.9551724 34.2401457,30.8741379 C36.2880013,30.4689655 38.1720284,29.4155172 40.3017982,29.1724138 C42.4315681,28.9293103 44.5613379,28.9293103 46.6911077,28.7672414 C51.8517038,28.362069 56.8484715,27.5517241 61.435668,25.1206897 C62.4186387,24.5534483 63.4835236,24.3913793 64.6303228,24.2293103 C69.3813478,23.5810345 74.0504586,22.4465517 78.228084,20.0965517 C79.3748831,19.4482759 79.3748831,19.4482759 79.3748831,20.7448276 C79.4567973,23.1758621 79.9482827,25.5258621 81.5046529,27.4706897 C81.9961383,28.1189655 82.5695379,28.8482759 83.6344228,28.2 C83.7982512,28.037931 84.1259081,28.1189655 84.3716508,28.1189655 C86.1737637,28.2 87.8939624,27.9568966 89.6141611,27.5517241 C92.0715878,26.9844828 94.4471003,26.2551724 96.9045271,25.5258621 C97.1502697,25.4448276 97.3960124,25.3637931 97.5598409,25.1206897 L98.2151546,22.9327586 Z M77.8185129,13.7758621 C77.6546844,13.937931 77.490856,14.0189655 77.3270275,14.1 C70.2824042,17.4224138 63.237781,20.7448276 56.1931577,24.1482759 C52.8346745,25.7689655 49.2304487,26.4982759 45.5443086,26.8224138 C42.5953965,27.0655172 39.6464844,27.0655172 36.8614008,28.2 C36.6156582,28.2810345 36.6156582,28.2 36.6156582,27.9568966 C38.6635138,26.9034483 40.8751978,26.4982759 43.1687961,26.4172414 C50.2953336,26.2551724 56.6027288,23.7431034 62.5824672,20.0965517 C66.6781784,17.5844828 71.0196323,15.5586207 75.3610861,13.6137931 C76.0163999,13.3706897 76.6717137,13.1275862 77.2451133,12.8844828 C77.490856,12.8034483 77.7365986,12.7224138 77.9004271,12.9655172 C78.1461698,13.2896552 78.0642555,13.5327586 77.8185129,13.7758621 Z" id="Shape" fill="#BABCC5" fill-rule="nonzero"></path>
                        <path d="M90.8428745,5.67241379 C90.8428745,5.67241379 90.8428745,5.67241379 90.8428745,5.67241379 C89.941818,5.51034483 87.8939624,6.32068966 87.5663055,7.05 C87.5663055,7.13103448 87.5663055,7.29310345 87.5663055,7.29310345 C88.0577909,7.61724138 87.9758766,8.26551724 88.3035335,8.58965517 C88.7131047,8.9137931 88.9588473,9.72413793 89.6960753,8.99482759" id="Path" fill="#BABCC5"></path>
                        <path d="M90.679046,7.29310345 C90.5971318,7.61724138 90.679046,7.45517241 90.4333034,8.26551724 C90.3513891,8.67068966 90.1875607,8.9137931 89.941818,9.23793103 C89.941818,9.23793103 89.941818,9.23793103 89.941818,9.23793103 C90.0237322,9.80517241 90.2694749,9.72413793 90.4333034,9.31896552 C91.0067029,8.26551724 91.3343598,7.21206897 91.5801025,6.07758621 C91.6620167,5.51034483 91.3343598,5.59137931 91.0067029,5.91551724" id="Path" fill="#BABCC5"></path>
                    </g>
                    <g transform="translate(97.477927, 0.000000)" fill="#BABCC5" fill-rule="nonzero" id="Shape">
                        <path d="M17.7753866,0.567241379 C15.9732737,0.729310345 14.253075,1.13448276 12.5328763,1.78275862 C9.09247887,3.07931034 6.06165258,4.94310345 4.01379698,8.10344828 C3.68614008,8.58965517 3.35848319,9.15689655 3.44039741,9.72413793 C3.52231163,10.0482759 4.0957112,10.2103448 4.4233681,10.4534483 C4.50528232,10.5344828 4.58719655,10.6155172 4.66911077,10.6155172 C4.50528232,10.8586207 4.17762543,10.6965517 4.0957112,11.0206897 C4.751025,11.5068966 5.40633879,10.3724138 6.06165258,11.1017241 C6.06165258,9.96724138 6.63505215,10.5344828 7.12653749,10.7775862 C7.29036594,10.8586207 7.45419439,11.0206897 7.61802284,10.7775862 C7.78185129,10.4534483 7.53610861,10.4534483 7.37228017,10.4534483 C7.12653749,10.3724138 6.88079482,10.3724138 7.04462327,10.0482759 C7.12653749,9.8862069 7.37228017,9.72413793 7.61802284,9.96724138 C7.69993706,10.0482759 7.78185129,10.1293103 7.94567973,10.0482759 C9.66587844,9.31896552 10.976506,10.2913793 12.5328763,10.9396552 C12.2052194,11.2637931 11.8775625,10.8586207 11.6318198,11.0206897 C11.7956483,11.3448276 12.1233052,11.75 11.3860771,11.6689655 C11.2222487,11.75 11.1403345,11.75 10.976506,11.8310345 C11.2222487,11.912069 11.2222487,12.4793103 11.5499056,12.3982759 C12.778619,12.0741379 13.1881901,13.0465517 13.9254181,13.6137931 C14.0073323,13.7758621 14.0892465,13.8568966 14.1711608,14.0189655 C14.253075,14.1 14.4169034,14.262069 14.4169034,14.262069 C14.1711608,14.5862069 13.8435039,14.4241379 13.515847,14.3431034 C13.2701043,14.262069 13.4339327,14.1 13.515847,13.937931 C13.4339327,13.8568966 13.3520185,13.7758621 13.3520185,13.6948276 C12.8605332,14.1810345 12.0413909,13.6948276 11.5499056,14.262069 C12.1233052,14.262069 12.4509621,14.5862069 12.9424474,14.8293103 C10.6488491,15.0724138 9.82970689,16.6931034 9.09247887,18.4758621 C8.43716508,17.5034483 7.53610861,18.1517241 6.71696637,18.2327586 C6.1435668,18.3137931 5.97973836,19.1241379 6.1435668,19.6913793 C6.30739525,20.0965517 6.71696637,20.5017241 7.20845172,20.2586207 C7.61802284,20.0965517 8.27333663,18.962069 8.02759396,20.5017241 C8.02759396,20.5827586 8.19142241,20.6637931 8.19142241,20.6637931 C9.17439309,20.5827586 8.8467362,21.2310345 8.92865042,21.9603448 C8.19142241,21.15 7.37228017,20.8258621 6.63505215,20.7448276 C5.73399568,20.6637931 5.16059612,20.2586207 4.58719655,19.7724138 C4.17762543,19.3672414 3.68614008,18.8810345 3.27656896,18.4758621 C3.27656896,18.5568966 3.27656896,18.637931 3.27656896,18.8 C3.35848319,18.962069 3.52231163,19.1241379 3.68614008,19.3672414 C3.03082629,19.2051724 2.78508362,18.8810345 2.70316939,18.3948276 C2.0478556,17.9086207 1.63828448,17.1793103 0.819142241,16.7741379 C0.491485344,19.6103448 0.737228017,22.2844828 1.55637026,24.9586207 C1.80211293,25.2017241 1.96594138,24.9586207 2.21168405,24.7965517 C2.3755125,24.6344828 2.53934095,24.3913793 2.70316939,24.3103448 C2.86699784,24.1482759 3.11274051,23.9862069 3.27656896,23.8241379 C3.27656896,23.8241379 3.27656896,23.8241379 3.35848319,23.8241379 C3.52231163,23.662069 3.68614008,23.5 3.93188275,23.4189655 C4.0957112,23.337931 4.17762543,23.2568966 4.34145388,23.1758621 C4.58719655,23.0137931 4.83293922,22.8517241 5.16059612,23.1758621 C5.48825301,23.5 5.24251034,23.7431034 5.07868189,24.0672414 C4.91485344,24.4724138 4.34145388,24.5534483 4.34145388,25.0396552 C4.66911077,25.0396552 5.07868189,25.0396552 5.40633879,25.0396552 C5.65208146,25.0396552 5.65208146,24.9586207 5.89782413,24.9586207 C5.89782413,24.8775862 6.1435668,24.8775862 6.1435668,24.8775862 C6.71696637,24.6344828 7.04462327,24.6344828 7.53610861,24.5534483 C7.78185129,24.4724138 8.02759396,24.4724138 8.27333663,24.4724138 C8.8467362,24.4724138 8.8467362,24.7965517 8.68290775,25.0396552 L6.88079482,25.85 L8.27333663,25.6068966 C8.27333663,25.6068966 8.92865042,25.3637931 9.09247887,25.6068966 C9.17439309,25.6068966 9.25630732,25.687931 9.25630732,25.7689655 C9.33822154,25.85 9.25630732,26.3362069 9.17439309,26.4982759 L8.60099353,26.6603448 C8.60099353,26.6603448 9.17439309,27.0655172 8.76482197,27.3086207 C8.10950818,27.6327586 6.4712237,27.7137931 6.4712237,27.7137931 C6.4712237,27.7137931 6.38930948,27.7948276 6.38930948,27.7948276 C7.04462327,27.8758621 7.61802284,27.7137931 7.78185129,27.9568966 C7.94567973,28.1189655 7.86376551,28.4431034 7.69993706,28.5241379 C7.53610861,28.6051724 7.04462327,28.6051724 6.96270905,28.6051724 C6.55313792,28.6862069 6.22548103,28.6862069 5.81590991,28.7672414 L4.66911077,28.9293103 C4.34145388,28.9293103 4.01379698,29.0103448 3.60422586,29.0103448 C3.60422586,29.4155172 3.93188275,29.7396552 4.0957112,29.9827586 C8.35525085,35.5741379 13.9254181,38.4103448 21.0519556,37.8431034 C25.6391521,37.5189655 29.5710349,35.5741379 32.8476038,32.3327586 C36.6156582,28.6051724 38.0082,23.9862069 38.2539426,18.8810345 C38.3358569,17.3413793 38.2539426,17.2603448 36.6975724,17.4224138 C36.5337439,17.4224138 36.4518297,17.4224138 36.2880013,17.4224138 C36.3699155,18.7189655 35.2231163,19.6913793 33.5029176,19.7724138 C33.4210034,19.7724138 33.3390892,19.7724138 33.257175,19.7724138 C33.3390892,20.4206897 33.6667461,20.5017241 34.1582314,20.2586207 C34.4039741,20.0965517 34.731631,19.9344828 34.9773737,20.1775862 C35.1412021,20.4206897 34.8954594,20.7448276 34.731631,20.987931 C34.3220599,21.4741379 33.994403,21.8793103 33.5848319,22.2844828 C33.0933465,22.7706897 32.7656896,23.337931 33.0114323,24.0672414 C33.257175,24.7965517 33.3390892,25.5258621 32.4380327,26.012069 C32.2742043,26.0931034 32.2742043,26.2551724 32.2742043,26.4172414 C32.2742043,27.5517241 31.6188905,28.362069 30.717834,29.0103448 C30.4720914,29.2534483 30.1444345,29.4155172 29.7348633,29.2534483 C28.9976353,29.0103448 27.4412651,26.0931034 27.768922,25.3637931 C28.1784931,24.7155172 27.9327504,24.2293103 27.6050935,23.7431034 C27.2774366,23.2568966 26.9497797,22.7706897 27.0316939,22.1224138 C27.0316939,21.9603448 27.0316939,21.7982759 26.7859513,21.7172414 C25.8848948,21.4741379 24.9019241,21.4741379 24.0008676,21.8793103 C23.8370392,21.9603448 23.5912965,22.0413793 23.3455539,21.9603448 C22.3625832,21.5551724 21.2976983,19.3672414 21.8710978,18.5568966 C22.4444974,17.7465517 22.9359827,16.7741379 23.8370392,16.1258621 C23.755125,16.0448276 23.5912965,15.9637931 23.5093823,15.8017241 C22.8540685,15.7206897 23.017897,15.1534483 23.017897,14.7482759 C23.017897,14.3431034 23.4274681,14.4241379 23.6732108,14.4241379 C23.9189534,14.4241379 24.3285245,14.5862069 24.492353,14.262069 C24.6561814,13.8568966 24.1646961,13.7758621 24.0827819,13.4517241 C24.0008676,13.3706897 23.9189534,13.2086207 23.9189534,13.1275862 C23.5912965,12.9655172 24.1646961,12.3982759 23.5912965,12.3172414 C23.5912965,12.6413793 23.5093823,12.9655172 23.017897,12.8844828 C22.9359827,12.8844828 22.8540685,12.7224138 22.8540685,12.7224138 C22.9359827,12.3172414 23.1817254,12.3172414 23.5912965,12.3172414 C23.5912965,12.1551724 23.2636396,11.912069 23.5093823,11.75 C23.755125,11.587931 24.0008676,11.6689655 24.1646961,11.912069 C24.492353,12.3172414 24.8200099,12.7224138 25.3114952,12.8844828 C25.966809,12.7224138 26.2125517,12.0741379 26.7859513,11.8310345 C26.7859513,11.8310345 26.8678655,11.8310345 26.8678655,11.8310345 C26.7859513,11.587931 26.9497797,11.1017241 26.3763801,11.4258621 C26.0487233,11.587931 25.8848948,11.2637931 25.8029806,11.1017241 C25.6391521,10.7775862 25.8848948,10.6155172 26.1306375,10.4534483 C27.9327504,8.9137931 29.980606,8.18448276 32.2742043,9.4 C32.1103758,9.64310345 31.7008047,9.31896552 31.455062,9.64310345 C32.1922901,10.2103448 32.6018612,9.80517241 33.0933465,9.4 C33.1752607,9.31896552 33.1752607,8.9137931 33.4210034,9.07586207 C33.994403,9.4 34.4858883,8.99482759 35.0592879,9.07586207 C32.6837754,5.10517241 27.1955224,0.810344828 20.8881271,0.324137931 C20.5604702,0.324137931 20.2328133,0.324137931 19.9051564,0.324137931 L17.7753866,0.567241379 Z M11.1403345,19.9344828 C11.3041629,19.9344828 11.3860771,20.0155172 11.4679914,20.0965517 C11.4679914,20.2586207 11.3041629,20.2586207 11.2222487,20.2586207 C11.1403345,20.2586207 10.976506,20.2586207 10.976506,20.1775862 C10.8945918,20.0155172 10.976506,19.9344828 11.1403345,19.9344828 Z M9.17439309,19.5293103 C9.42013577,19.3672414 9.74779266,19.3672414 10.0754496,19.5293103 C9.74779266,19.9344828 9.42013577,19.5293103 9.17439309,19.5293103 Z M18.1849577,25.5258621 C17.9392151,25.85 17.8573008,26.1741379 17.8573008,26.4982759 C17.8573008,27.1465517 17.6115582,27.7137931 16.8743302,27.8758621 C16.5466733,27.9568966 16.3828448,28.2 16.2190164,28.6051724 C15.9732737,29.3344828 15.5637026,30.1448276 14.5807319,30.1448276 C14.5807319,30.2258621 14.5807319,30.3068966 14.5807319,30.387931 C14.6626461,30.712069 14.5807319,30.9551724 14.1711608,31.0362069 C13.3520185,31.2793103 13.0243616,31.9275862 12.9424474,32.737931 C12.8605332,33.3051724 12.1233052,33.7913793 13.2701043,34.1965517 C11.6318198,34.1965517 11.2222487,33.6293103 11.3041629,32.3327586 C11.4679914,30.9551724 12.0413909,29.5775862 12.0413909,28.1189655 C12.0413909,27.5517241 11.8775625,27.1465517 11.3041629,26.8224138 C9.99353534,26.0931034 9.58396422,24.7155172 10.239278,23.2568966 C10.4031065,22.8517241 10.0754496,22.3655172 10.6488491,21.7982759 C11.0584202,21.3931034 11.5499056,22.1224138 11.713734,21.5551724 C12.2052194,21.8793103 12.9424474,21.4741379 13.3520185,21.7982759 C13.8435039,22.2844828 14.4988177,22.4465517 14.990303,22.7706897 C15.2360457,22.9327586 15.8094452,22.9327586 15.4817883,23.5 C15.3998741,23.7431034 15.6456168,23.7431034 15.8094452,23.7431034 C16.3828448,23.662069 16.9562444,23.9862069 17.5296439,23.9862069 C18.4307004,23.9862069 18.7583573,24.6344828 18.1849577,25.5258621 Z M19.4136711,9.64310345 C19.4136711,9.64310345 19.4136711,9.64310345 19.4136711,9.64310345 C19.4136711,9.64310345 19.4136711,9.64310345 19.4136711,9.64310345 C19.4136711,9.72413793 19.4136711,9.72413793 19.3317569,9.72413793 C19.2498427,9.8862069 19.0041,9.8862069 18.7583573,9.8862069 C17.6934724,10.3724138 16.3828448,10.4534483 15.727531,11.6689655 C15.6456168,11.75 15.5637026,11.8310345 15.3998741,11.75 C14.5807319,11.6689655 13.7615896,10.7775862 13.8435039,9.8862069 C13.8435039,9.80517241 13.9254181,9.80517241 13.9254181,9.72413793 C13.0243616,9.56206897 12.3690478,8.42758621 11.3041629,8.83275862 C11.0584202,8.9137931 10.8126776,8.9137931 10.7307634,8.75172414 C10.4850207,8.42758621 10.976506,8.42758621 11.0584202,8.34655172 C11.8775625,7.94137931 12.5328763,7.13103448 13.6796754,7.29310345 C14.0073323,7.37413793 14.4169034,6.80689655 14.8264746,6.64482759 C15.1541315,6.40172414 15.5637026,6.23965517 15.9732737,6.15862069 C15.9732737,6.15862069 15.9732737,6.15862069 15.9732737,6.15862069 C16.7105017,5.75344828 17.4477297,6.15862069 18.1849577,6.23965517 C18.3487862,6.32068966 18.5945289,6.32068966 18.5945289,6.40172414 C19.0860142,7.21206897 19.6594138,7.5362069 20.6423845,7.05 C19.4955853,7.45517241 20.0689849,8.9137931 19.1679284,9.31896552 C19.2498427,9.31896552 19.3317569,9.56206897 19.4136711,9.64310345 Z M19.6594138,10.5344828 L21.2976983,10.5344828 C20.8062129,11.1827586 20.3966418,11.1017241 19.6594138,10.5344828 Z M35.0592879,25.85 C35.0592879,26.0931034 34.9773737,26.2551724 34.8954594,26.4982759 C34.731631,26.8224138 34.731631,27.3896552 34.2401457,27.3086207 C33.7486603,27.2275862 33.994403,26.7413793 33.9124888,26.4172414 C33.9124888,26.012069 33.8305745,25.6068966 34.1582314,25.3637931 C34.4039741,25.2017241 34.6497168,24.7965517 34.9773737,24.9586207 C35.468859,25.2017241 35.0592879,25.5258621 35.0592879,25.85 Z"></path>
                    </g>
                    <path d="M98.5428115,26.4172414 L98.8704684,26.4172414 C98.8704684,26.4172414 99.5257822,25.2827586 100.83641,24.2293103 C102.228952,23.0948276 102.228952,23.4189655 102.228952,23.4189655 C102.228952,23.4189655 102.556609,23.5810345 102.228952,23.9862069 C101.901295,24.3913793 101.245981,24.7155172 101.164067,24.9586207 C101.082152,25.2017241 101.082152,25.4448276 101.327895,25.5258621 C101.573638,25.6068966 102.884265,25.5258621 102.884265,25.5258621 C102.884265,25.5258621 105.095949,24.7155172 105.587435,24.7155172 C105.997006,24.7155172 106.160834,25.0396552 105.915092,25.0396552 C105.669349,25.1206897 103.703408,25.9310345 103.539579,26.0931034 C103.375751,26.1741379 103.211922,26.2551724 103.457665,26.3362069 C103.703408,26.4172414 106.242749,26.012069 106.324663,26.012069 C106.488491,26.012069 106.65232,26.1741379 106.488491,26.3362069 C106.324663,26.5793103 103.867236,26.9034483 103.867236,26.9034483 C103.867236,26.9034483 103.457665,27.1465517 103.703408,27.2275862 C103.94915,27.3086207 105.587435,26.9844828 105.751263,26.9034483 C105.915092,26.8224138 106.160834,27.1465517 105.751263,27.3896552 C105.423606,27.5517241 103.457665,27.6327586 103.293837,27.7948276 C103.048094,27.9568966 102.96618,28.037931 103.293837,28.1189655 C103.293837,28.1189655 104.604464,28.1189655 104.850207,28.1189655 C105.095949,28.1189655 105.095949,28.6051724 104.686378,28.6051724 C104.276807,28.6051724 99.9353534,28.8482759 99.7715249,28.8482759 C99.6076965,28.8482759 99.443868,28.8482759 99.443868,28.8482759 C99.443868,28.8482759 98.5428115,27.4706897 98.5428115,26.4172414 Z" id="Path" fill="#BABCC5"></path>
                </g>
            </g>
        </g>
    </g>
</svg>