<?xml version="1.0" encoding="UTF-8"?>
<svg width="28px" height="29px" viewBox="0 0 28 29" version="1.1" xmlns="http://www.w3.org/2000/svg" xmlns:xlink="http://www.w3.org/1999/xlink">
    <!-- Generator: Sketch 52.5 (67469) - http://www.bohemiancoding.com/sketch -->
    <title>Shape</title>
    <desc>Created with Sketch.</desc>
    <g id="Page-1" stroke="none" stroke-width="1" fill="none" fill-rule="evenodd">
        <g id="v2" transform="translate(-706.000000, -5309.000000)" fill="#FFFD98" fill-rule="nonzero">
            <path d="M729.178819,5322.6978 C727.286469,5320.57535 728.983059,5320.17108 729.511611,5319.45096 C730.040163,5318.73084 731.606249,5318.01072 732.78081,5317.51801 C733.955372,5317.02529 731.762857,5316.53258 731.762857,5316.53258 C734.386046,5313.72791 732.859117,5313.69001 732.859117,5313.69001 C731.584089,5314.58108 729.893799,5314.68427 728.513233,5313.95532 C726.986304,5310.77163 726.085803,5311.71916 725.420218,5310.77163 C724.754633,5309.82411 721.557208,5306.57724 716.375561,5312.32556 C710.854563,5319.07194 719.429968,5323.05155 719.410393,5323.52531 C719.390817,5323.99908 719.443015,5323.99408 719.443015,5323.99408 C719.443015,5323.99408 715.188495,5323.60742 713.022069,5324.59285 C710.855644,5325.57827 709.341771,5323.65796 708.924158,5322.6978 C708.506546,5321.73763 706.94045,5321.68711 706.209605,5324.41598 C705.47876,5327.14486 706.470604,5333.66383 712.212928,5336.39271 C717.955251,5339.12159 727.821534,5337.80767 729.805268,5336.59483 C731.789002,5335.382 733.616071,5333.81545 733.981496,5330.07586 C734.346921,5326.33627 729.178819,5322.6978 729.178819,5322.6978 Z" id="Shape"></path>
        </g>
    </g>
</svg>