<svg id="Layer_1" data-name="Layer 1" xmlns="http://www.w3.org/2000/svg" viewBox="0 0 924 576"><defs><style>.cls-1{fill:#4d66ca;}</style></defs><title>Logo Full working</title><path class="cls-1" d="M253.94,327.61,253.73,339H178.32L177,332.14A116.49,116.49,0,0,1,195.34,322V278.06H143v46.32l19.61,3.23L162.38,339H87l-1.3-6.89A116.16,116.16,0,0,1,104,322V210.42l-16.59-2.59.21-11.42H160l1.29,6.9A95.14,95.14,0,0,1,143,213.43v44.38h52.35V210.42l-16.59-2.59.22-11.42h72.39l1.29,6.9a95.45,95.45,0,0,1-18.31,10.12v111Z"/><path class="cls-1" d="M343.35,289.7l-54.29-.43q1.5,14,10,21.54t21.43,7.54q11.42,0,27.36-8.19l5.39,12.28-33.82,19.18-9.92.64q-23.91,0-39.74-15.08t-15.84-38.56q0-23.91,16.05-40.61t38.89-16.7q20.89,0,34,12.61t12.92,33.28Zm-40.29-40.51q-10.33,6.47-13.14,23.7L322.24,271a30.19,30.19,0,0,0-6.57-15.18Q310.38,249.41,303.06,249.19Z"/><path class="cls-1" d="M413.58,268.37v51.06q14.44,3.45,23.49,9.05L436.64,339H360.8l-.43-7.54a93.52,93.52,0,0,1,15.94-7.11V253.07l-15.94-3-1.08-10.35q19.18-7.32,42.66-8l11.63,16.16v3.88l17-19.17a26.25,26.25,0,0,1,8.19-1.08,30.4,30.4,0,0,1,15.84,4.31,22.64,22.64,0,0,1,10,12.06l-24.77,31.24Q425.43,267.08,416.82,266Z"/><path class="cls-1" d="M648.62,320.5a71.4,71.4,0,0,1,16.59,8L664.57,339H611.35V279.36q0-21.76-13.78-21.76A31.83,31.83,0,0,0,584.21,261l.21,60.33a70.74,70.74,0,0,1,12.93,7.11L596.7,339H547.15V279.36q0-21.76-13.78-21.76-5.4,0-12.93,3.23v60.75a69.42,69.42,0,0,1,12.49,6.9L532.5,339H467.66l-.43-7.54a93.17,93.17,0,0,1,15.94-7.11V253.07l-15.94-3-1.08-10.35q19.17-7.32,42.66-8l11.63,11.64v6q17-12.49,31.45-17,20.25.65,30,15.51l1.29,2.8q17.45-13.35,33-18.31Q636.34,233,646,247.9q2.37,4.32,2.58,19.61Z"/><path class="cls-1" d="M756.56,289.7l-54.29-.43q1.5,14,10,21.54t21.43,7.54q11.41,0,27.36-8.19l5.39,12.28-33.83,19.18-9.91.64q-23.91,0-39.74-15.08t-15.84-38.56q0-23.91,16.05-40.61t38.89-16.7q20.89,0,34,12.61t12.92,33.28Zm-40.29-40.51q-10.34,6.47-13.14,23.7L735.45,271a30.12,30.12,0,0,0-6.58-15.18Q723.59,249.41,716.27,249.19Z"/><path class="cls-1" d="M813.22,257a10.2,10.2,0,0,0,2.8,7q2.79,3.14,20,12.07t23.27,16.58a27.28,27.28,0,0,1,6,17.35q0,14.66-12.06,24t-32.1,9.37q-22.62,0-45-11.63l12.28-28.23A140.61,140.61,0,0,0,827.22,325a10.4,10.4,0,0,0,3.88-8,10.29,10.29,0,0,0-3.12-7.33q-3.13-3.23-19.82-11.74t-22.63-15.94a26.4,26.4,0,0,1-5.92-16.91q0-15.09,13.25-24.46t34.36-9.37q19.6,0,33.39,7.11l.44,7.54a73.79,73.79,0,0,1-3.67,22.62h-19L831.75,249l-9.91-1.08Q813.22,250.48,813.22,257Z"/><path class="cls-1" d="M333.07,160V115.17h19a12.8,12.8,0,0,1,5.72,1.29,14.81,14.81,0,0,1,4.52,3.41,16.41,16.41,0,0,1,3,4.81,14.35,14.35,0,0,1,1.07,5.4,15.81,15.81,0,0,1-3.85,10.31,14.06,14.06,0,0,1-4.43,3.35,12.8,12.8,0,0,1-5.69,1.26H341.8v15Zm8.73-22.69h10.11a5,5,0,0,0,4-2,8.06,8.06,0,0,0,1.61-5.31A8.62,8.62,0,0,0,357,127a7.41,7.41,0,0,0-1.33-2.31,5.24,5.24,0,0,0-1.93-1.42,5.54,5.54,0,0,0-2.24-.48H341.8Z"/><path class="cls-1" d="M373.71,160V115.17h19.85a12.77,12.77,0,0,1,5.72,1.29,14.69,14.69,0,0,1,4.52,3.41,16,16,0,0,1,3,4.81,14.37,14.37,0,0,1,1.08,5.4,14.94,14.94,0,0,1-2.18,7.93,12.58,12.58,0,0,1-5.91,5.16L410,160h-9.8L391,145h-8.59v15Zm8.73-22.69h10.93a4.64,4.64,0,0,0,2.25-.57,5.77,5.77,0,0,0,1.8-1.55,8,8,0,0,0,1.2-2.3,9.15,9.15,0,0,0,.44-2.85,8.31,8.31,0,0,0-.5-2.91,7.61,7.61,0,0,0-1.36-2.3,6.18,6.18,0,0,0-2-1.52,5.1,5.1,0,0,0-2.25-.54H382.44Z"/><path class="cls-1" d="M437.43,160.36a20.36,20.36,0,0,1-8.95-1.93,21.8,21.8,0,0,1-6.88-5.12,23.72,23.72,0,0,1-6-15.71,22.66,22.66,0,0,1,1.67-8.59,23.82,23.82,0,0,1,4.62-7.27,22.15,22.15,0,0,1,7-5,20.81,20.81,0,0,1,8.79-1.86,19.69,19.69,0,0,1,8.88,2,22.47,22.47,0,0,1,6.86,5.21,24.09,24.09,0,0,1,4.42,7.34,23.14,23.14,0,0,1,1.58,8.34,22.75,22.75,0,0,1-1.64,8.56,23.23,23.23,0,0,1-4.55,7.21,21.78,21.78,0,0,1-7,5A20.58,20.58,0,0,1,437.43,160.36Zm-13-22.76a18.06,18.06,0,0,0,.88,5.63,15.15,15.15,0,0,0,2.56,4.8,12.77,12.77,0,0,0,4.11,3.35,12.69,12.69,0,0,0,11.13,0,12.63,12.63,0,0,0,4.1-3.44,15.32,15.32,0,0,0,2.53-4.84,17.91,17.91,0,0,0,.86-5.47,17.51,17.51,0,0,0-.92-5.62,15.67,15.67,0,0,0-2.59-4.81,12.4,12.4,0,0,0-4.11-3.31,12.74,12.74,0,0,0-11.09.06,12.32,12.32,0,0,0-4.11,3.41,15.4,15.4,0,0,0-2.5,4.81A17.89,17.89,0,0,0,424.41,137.6Z"/><path class="cls-1" d="M464.1,150.88a13.54,13.54,0,0,0,3,1.39,14.2,14.2,0,0,0,4.81.76,8.4,8.4,0,0,0,4.23-.92,5.72,5.72,0,0,0,2.4-2.81,15.43,15.43,0,0,0,1.08-4.71q.26-2.82.25-6.61V115.17h8.72V138a73.79,73.79,0,0,1-.53,9.33,18.8,18.8,0,0,1-2.28,7.17,11.7,11.7,0,0,1-5,4.61,19.9,19.9,0,0,1-8.85,1.65,16.82,16.82,0,0,1-9.74-2.78Z"/><path class="cls-1" d="M531.1,152.39V160H499.94V115.17h30.6v7.64H508.67v10.81h18.89v7.08H508.67v11.69Z"/><path class="cls-1" d="M536.79,137.29a23.21,23.21,0,0,1,1.49-8.12,21.78,21.78,0,0,1,11.28-12.3,21.58,21.58,0,0,1,9.36-2,20.39,20.39,0,0,1,10.71,2.72,17.32,17.32,0,0,1,6.73,7.08l-6.7,4.61a11.66,11.66,0,0,0-2.15-3.19,10.64,10.64,0,0,0-2.72-2,12,12,0,0,0-3-1.11,14.52,14.52,0,0,0-3.1-.35,11.82,11.82,0,0,0-5.72,1.33,12.52,12.52,0,0,0-4,3.45,15.11,15.11,0,0,0-2.44,4.8,18.43,18.43,0,0,0-.82,5.34,17.47,17.47,0,0,0,1,5.72,15.22,15.22,0,0,0,2.69,4.84,13.58,13.58,0,0,0,4.17,3.35,11.43,11.43,0,0,0,5.34,1.26,14.25,14.25,0,0,0,3.16-.38,11.78,11.78,0,0,0,3.13-1.2,11.92,11.92,0,0,0,2.75-2.12,9.6,9.6,0,0,0,2-3.13L577,150a13.36,13.36,0,0,1-3.06,4.46,19.89,19.89,0,0,1-4.49,3.25,23,23,0,0,1-5.34,2,23.57,23.57,0,0,1-5.56.69,19.11,19.11,0,0,1-8.79-2,23,23,0,0,1-6.86-5.28,24.53,24.53,0,0,1-4.49-7.39A23.2,23.2,0,0,1,536.79,137.29Z"/><path class="cls-1" d="M618.52,122.81H604.17V160h-8.66V122.81H581.17v-7.64h37.35Z"/><polygon class="cls-1" points="574.37 461.29 535 421.92 495.64 461.29 456.27 421.92 416.9 461.29 377.53 421.92 342.99 456.45 333.32 446.79 377.53 402.59 416.9 441.96 456.27 402.59 495.64 441.96 535 402.59 574.37 441.96 608.91 407.42 618.58 417.09 574.37 461.29"/></svg>