<svg id="Layer_1" data-name="Layer 1" xmlns="http://www.w3.org/2000/svg" viewBox="0 0 775.32 236.77"><defs><style>.cls-1{fill:#90aeff;}</style></defs><title>Dan Europe Logo</title><path class="cls-1" d="M224.35.66c.52,5.89.38,165.77-.14,169.63a5,5,0,0,1-1.28.32q-110.85,0-221.7-.07c-.27,0-.54-.25-1-.5A14.68,14.68,0,0,1,0,168.36Q0,84.64,0,.82A10.14,10.14,0,0,1,2,.25C8.73-.2,220.89.18,224.35.66ZM4,27.16,200.83,166.8c6,0,11.56,0,17.15,0a17.42,17.42,0,0,0,2.72-.42V141.87L26.51,4.1c-7.11,0-14,0-20.86,0A5.49,5.49,0,0,0,4,4.75Zm186.93-12.5a115,115,0,0,0-19.88.16c-.57,2.26-.21,4.64-.27,7s0,4.47,0,6.71.28,4.74-.34,7.4c-7.08.47-14.06-.22-20.9.4-.8,5.81-.64,17.11.3,20.4,1.33.06,2.74.17,4.16.18,4.63,0,9.27,0,13.91,0a18,18,0,0,1,2.77.47c.38,7.1-.21,13.93.34,20.94,1.23,0,2.16.12,3.1.12h17c.1-1.5.24-2.74.25-4,0-4.79,0-9.59,0-14.39,0-.9.18-1.81.3-3,1.55-.09,2.8-.21,4-.22,4.64,0,9.28,0,13.91,0a24.09,24.09,0,0,0,3.13-.42c.68-7.83.46-17.29-.45-20.24-6.8-.44-13.66.16-20.53-.35-.79-3.8-.24-7.32-.42-10.8S191.71,18.08,190.88,14.66ZM62.17,105c0-2.33.11-4.22,0-6.11s.38-3.79-.48-5.66c-.78-.08-1.39-.21-2-.21q-18.7,0-37.42.11a.89.89,0,0,0-.43.15,4.08,4.08,0,0,0-.54.49,12.29,12.29,0,0,0-.21,1.64q0,26.16,0,52.3a6.23,6.23,0,0,0,.46,1.68c6.82.54,37.67.35,41.62-.28,0-1.65.15-3.37.11-5.09s.3-3.78-.48-5.9H55.11c-2.72,0-5.44.05-8.15,0-2.5-.06-5,.3-7.71-.37,0-3.72-.2-7.18.13-10.88,1.33-.1,2.41-.24,3.49-.25,5.12,0,10.24,0,15.36,0,.9,0,1.81-.17,3-.29,0-1.86.1-3.43.09-5,0-1.72-.1-3.44-.16-5.35-1.56-.09-2.81-.21-4.06-.21-4.95,0-9.91,0-14.87,0a24.83,24.83,0,0,1-3-.43c0-2.58,0-5,0-7.36,0-.76.09-1.52.16-2.63C46.91,105,54.22,105.43,62.17,105Z"/><path class="cls-1" d="M577.11,169.84c-.51-5.27-.41-165.58.09-169.18a4.8,4.8,0,0,1,1.31-.39c20,0,40,0,60.2,0,.68,1.29,1.4,2.5,2,3.78q15.8,35.19,31.56,70.42,11.46,25.59,23,51.16c.61,1.35.89,3,2.77,4.09a10.59,10.59,0,0,0,.46-1.9c.06-1.44,0-2.88,0-4.32q0-58.78,0-117.57c0-1.73.1-3.46.15-5.11,4-.79,19.54-1,35.16-.59a24.54,24.54,0,0,1,2.67.37c.62,4.19.62,165,0,169.16a9.62,9.62,0,0,1-1.72.42c-5.59.34-56.8,0-60.29-.37-5-10.63-9.72-21.62-14.66-32.5s-9.65-21.59-14.48-32.38L630.65,72.11,616.24,39.9c-1.3,0-1,.86-1,1.37-.06,1.44,0,2.88,0,4.32v124a10.27,10.27,0,0,1-2.33.58q-17,0-34.07,0A11.3,11.3,0,0,1,577.11,169.84Z"/><path class="cls-1" d="M248.24.21h5.88c17.59,0,35.17,0,52.76,0,7.34,0,14.71.08,22,.58a116.86,116.86,0,0,1,32.32,6.36c22.45,8.18,37.11,23.65,43.83,46.58A99.81,99.81,0,0,1,409,80.21a141.78,141.78,0,0,1-1.05,22.94c-1.52,10.53-4.48,20.59-9.84,29.84-7.49,12.93-18.52,21.82-32.06,27.74a108.53,108.53,0,0,1-31.42,8,286.48,286.48,0,0,1-33,1.46H248.69a22.72,22.72,0,0,1-.43-3c0-3,0-6.07,0-9.11V.21Zm45.07,28.53a9.91,9.91,0,0,0-.48,1.83q0,54.66,0,109.31a6.63,6.63,0,0,0,.42,1.51,11.43,11.43,0,0,0,1.82.27c6.7-.09,13.42,0,20.11-.35A67,67,0,0,0,334,138.05c6.94-2.37,13-6,17.7-11.77,4.86-6,7.58-12.91,9.1-20.35a108,108,0,0,0,.88-36.7,58.94,58.94,0,0,0-4.41-15.63,37.48,37.48,0,0,0-19.77-19.92A55,55,0,0,0,327,30.47C316,28.11,304.78,28.8,293.31,28.74Z"/><path class="cls-1" d="M445.51,132.45l-12.89,37.42c-4.75.67-9.37.25-14,.32s-9.27.05-13.91,0-9.22.19-14.2-.2a20.57,20.57,0,0,1,.66-2.87q9.35-24.65,18.75-49.26Q431.48,61.47,453,5.07c.57-1.47,1.19-2.93,1.65-4.06a6.61,6.61,0,0,1,.72-.55,1,1,0,0,1,.44-.14L502.37.21q1.92,0,3.84.09a6.6,6.6,0,0,1,1.33.44Q540,84.24,572.69,168.32a4.26,4.26,0,0,1,.13,1.27c-.38.22-.63.51-.88.51-15,0-30.05,0-45.35,0-.51-1.11-1.11-2.2-1.51-3.36q-4.86-14-9.66-28.09c-.72-2.09-1.51-4.17-2.22-6.14C509.27,132,450.85,131.9,445.51,132.45Zm8.66-28.09a10.72,10.72,0,0,0,1.89.53q22.77,0,45.55,0a9.51,9.51,0,0,0,2.19-.62L479.65,30.68c-.42.33-.8.48-.89.72C470.6,55.58,462.45,79.76,454.17,104.36Z"/><path class="cls-1" d="M418.2,203.48c1.5,6.93,2.95,13.6,4.39,20.25,1.19.33,1.39-.54,1.57-1.25,1.34-5.09,2.63-10.19,4-15.27.32-1.21.81-2.37,1.24-3.61a23.86,23.86,0,0,1,7.82,0c2.36,7,3.31,14.22,5.77,22.24,1.81-8.15,3.35-15.12,4.9-22.09,2.27-.74,4.29-.33,6.58-.37a8.4,8.4,0,0,1,.06,2q-3.7,14.6-7.5,29.18c-.07.29-.33.52-.67,1-2.31.57-4.81.21-7.5.17-2.33-6.94-3.18-14.07-5.47-20.7-1.06-.12-1.28.46-1.44,1.09-1,4-2,8.05-3.07,12.06-.64,2.44-1.38,4.86-2.09,7.34a23.26,23.26,0,0,1-8.11,0c-3-10.38-5.21-20.94-7.87-31.17.57-.51.8-.88,1-.89C413.73,203.45,415.63,203.48,418.2,203.48Z"/><path class="cls-1" d="M352.39,235.89c-2.3,0-4.2,0-6.1,0-1.1,0-2.2-.14-3.58-.23-3.88-7.58-7.08-15.52-11.36-23-1,7.59-.15,15.18-.81,22.73a11.33,11.33,0,0,1-6.47.15c-1-3.48-.33-7-.44-10.45s0-7,0-10.53V203.83a18.3,18.3,0,0,1,2.92-.6c2.38-.07,4.77,0,7.43,0,1.85,3.75,3.68,7.44,5.49,11.14s3.58,7.41,5.44,11.25c1.15-.79.7-1.79.78-2.6s0-1.91,0-2.87v-11c0-.8,0-1.6,0-2.39,0-.94.13-1.87.21-2.95,2.13-.89,4.14-.59,6.37-.33a9.86,9.86,0,0,1,.54,2.26q.06,13.89,0,27.78A16.83,16.83,0,0,1,352.39,235.89Z"/><path class="cls-1" d="M622.94,203.24c5.84,0,11.42-.25,17,.07a8.12,8.12,0,0,1,7.9,9.43c-.36,2.95-2,4.94-4.78,6.31l3,3.12c.75,4.15,1.56,8.67,2.41,13.4h-7c-1.63-3.52-.88-7.72-2.46-11.63-2.53-2.48-5.71-1.23-9-1.32-.08,4.43-.16,8.53-.24,12.82a22,22,0,0,1-6.57.2,13,13,0,0,1-.41-2.27q0-14.37,0-28.75A8.76,8.76,0,0,1,622.94,203.24Zm15.26,13.33a4.81,4.81,0,0,0,1.65-6.07c-3.22-2.52-4-2.66-10-1.77a31.39,31.39,0,0,0,.07,8.32C632.84,217.28,635.48,217.53,638.2,216.57Z"/><path class="cls-1" d="M682.77,219c-.46,2.5-.82,5-1.41,7.48a12.26,12.26,0,0,1-1.57,3.46c-3.46,5.59-8.88,7-14.91,6.46S654.3,233,652.3,227a22.7,22.7,0,0,1,.36-15.44,13.11,13.11,0,0,1,10-8.72,18.42,18.42,0,0,1,11.25.83,12.5,12.5,0,0,1,6.92,6.9A26.64,26.64,0,0,1,682.77,219Zm-7.92.39a15,15,0,0,0-1.06-7,7.15,7.15,0,0,0-7.12-4.61,7,7,0,0,0-6.88,5,19.27,19.27,0,0,0,.08,13.55,7,7,0,0,0,6.91,4.89c3.26,0,5.59-1.54,7-4.78A14.85,14.85,0,0,0,674.85,219.34Z"/><path class="cls-1" d="M.13,235.61V203.84a13.27,13.27,0,0,1,2.67-.6c3.5,0,7,0,10.51.1,8.52.3,13.88,5.64,14.37,14.17a21.89,21.89,0,0,1-1.33,9.38c-2,5.09-5.71,8.12-11,8.75A74.37,74.37,0,0,1,.13,235.61Zm7.32-5.51c2.22,0,3.8.14,5.35,0a7.18,7.18,0,0,0,5.48-3.45c2-3.3,2.22-7,1.59-10.64a9,9,0,0,0-5.52-6.81c-1.08-.09-2.19-.27-3.3-.26s-2.12.2-3.48.34C7.3,216.18,7.46,222.82,7.45,230.1Z"/><path class="cls-1" d="M455,219.58a18.72,18.72,0,0,1,2.75-10.84c2.15-3.55,5.48-5.31,9.32-6.1a17.84,17.84,0,0,1,10.77,1.17,11.54,11.54,0,0,1,5.68,4.94c4,7.11,3.93,14.34,0,21.43-2.06,3.72-5.6,5.6-9.7,6.3a20.19,20.19,0,0,1-7.58-.26c-7.88-1.68-11.1-8.27-11.26-14.15C455,221.28,455,220.48,455,219.58Zm18.29-11.36a14.35,14.35,0,0,0-1.86-.26c-4.6-.08-6.83,1.35-8.14,5.78a19.69,19.69,0,0,0,.59,13.11,6.9,6.9,0,0,0,.45.85,6.33,6.33,0,0,0,5.38,3.43c3.56.29,6.26-1.18,7.61-4.54a18,18,0,0,0,1-11.22C477.65,212.46,476.5,210,473.29,208.22Z"/><path class="cls-1" d="M511.79,219.35c2.49,2.64,3.23,6,3.57,9.56.19,2.05.63,4.08,1,6.32-2.36,1.08-4.64.66-7.25.36-.73-4-1.43-7.84-2.08-11.43-3.46-1.77-3.46-1.77-8.36-1.29-1.31,3.95.09,8.17-.81,12.17-2.58.93-2.58.93-6.67.55a4.72,4.72,0,0,1-.59-1.61q-.06-14.4,0-28.79a7.63,7.63,0,0,1,.43-1.63,14.22,14.22,0,0,1,2.2-.33q6.48-.06,13,0a13.74,13.74,0,0,1,3.33.32,8.32,8.32,0,0,1,5,12.89A32.18,32.18,0,0,1,511.79,219.35Zm-3.35-7a4.37,4.37,0,0,0-2.86-3.52,12.12,12.12,0,0,0-7.56,0c-.51,2.92-1,5.65.42,8.48,1.35.07,2.61.2,3.86.18C506.34,217.4,507.12,216.73,508.44,212.35Z"/><path class="cls-1" d="M271.25,223.78c-2.56-1.46-5.08-1.37-7.89-1a15.51,15.51,0,0,0-.53,2.63c-.08,2.39,0,4.79-.05,7.18,0,.92-.19,1.83-.3,2.84a14.53,14.53,0,0,1-7,.07c-.58-5.33-.2-10.56-.27-15.77s0-10.5,0-15.94a17.1,17.1,0,0,1,2.95-.58c4.3,0,8.61,0,12.91,0a9.56,9.56,0,0,1,8.76,4.6c.25,1,.58,2.44.77,3.21.23,4-2,6.14-4.45,8.43,3,2.2,3.26,5.45,3.81,8.55.42,2.34.65,4.7,1,7.32-2.21,1-4.49.54-6.74.37C272.08,231.94,273.28,227.61,271.25,223.78Zm1.95-11.26a4.38,4.38,0,0,0-2.63-3.51c-2.6-1-5.21-.91-8.25-.29.06,2.9-.64,5.65.38,8.37a10,10,0,0,0,1.58.33,27.1,27.1,0,0,0,2.85,0C270.84,217.3,271.73,216.59,273.2,212.52Z"/><path class="cls-1" d="M129.23,235.67a19.59,19.59,0,0,1-7-.13c-2-3.7-.73-8.06-2.78-11.62-3.47-1.55-3.47-1.55-8-.89-1.22,3.89.2,8.15-.89,12.22-2.07,1.12-4.13.41-6.24.64a6.53,6.53,0,0,1-.69-1.9c0-9.59,0-19.18,0-28.78a8.71,8.71,0,0,1,.41-1.63,21.09,21.09,0,0,1,2.68-.36c4,0,8,0,12,0,.64,0,1.28,0,1.92.07,3.73.2,6.49,2,7.61,5.54,1.07,3.39.73,6.68-2.39,9.1l-1.52,1.2a23.23,23.23,0,0,1,2.56,3.91,23.62,23.62,0,0,1,1,4.64C128.27,230.18,128.7,232.69,129.23,235.67Zm-18.66-18.41c4,.12,7.66,1.19,10.2-2.57a24.72,24.72,0,0,0,.12-2.76,7.72,7.72,0,0,0-.49-1.68c-3.62-2.29-4.73-2.44-9.75-1.29-.09,1-.24,2.09-.24,3.17C110.4,213.69,110.5,215.26,110.57,217.26Z"/><path class="cls-1" d="M156.92,212.46c-1.81.75-3.71.2-5.72.41a18.28,18.28,0,0,1-1.32-2,4.71,4.71,0,0,0-5-2.87c-2.44.18-3.27.91-4.57,4,.19,2.07,1.64,3,3.39,3.55s3.73.89,5.57,1.41a17.72,17.72,0,0,1,6.11,2.66,7.15,7.15,0,0,1,2.91,5.26,9.93,9.93,0,0,1-5.38,9.88,19,19,0,0,1-15.34.71c-4.06-1.54-5.7-4.44-5.63-9.45,2.65-.83,2.65-.83,6.8-.38.56,2,1.2,4.17,4.19,5.33,1.88.39,4.43.58,6.52-1.41,1.1-1,1.53-2.41.68-4.44a22.79,22.79,0,0,0-2.89-1.58c-1.33-.51-2.79-.7-4.14-1.17a51.32,51.32,0,0,1-5.79-2.24c-7.26-3.53-5.3-12.86-.13-15.62a16.47,16.47,0,0,1,16.08-.17C156.31,206,157.28,208.34,156.92,212.46Z"/><path class="cls-1" d="M521.07,203.5a14.89,14.89,0,0,1,6.64.11c.63,3.79,0,7.61.4,11.24a2.75,2.75,0,0,0,.66.25.64.64,0,0,0,.42-.2c3.11-3.84,6.21-7.68,9.45-11.7,1.56,0,3.15,0,4.73,0,.78,0,1.56.13,2.74.24a11.1,11.1,0,0,1-1,2.22c-2.57,3.26-5.21,6.47-7.82,9.7-.59.73-1.13,1.5-1.86,2.47,1.42,2,2.75,4,4.12,5.92s2.74,3.56,3.92,5.45,3.24,3.49,3.67,5.87c-.48.34-.72.66-1,.66-2.22,0-4.45,0-6.87,0-4-4.19-6.21-9.82-10.7-14.23-.85,1.76-.51,3.19-.56,4.55-.06,1.6,0,3.2,0,4.8,0,1.41-.11,2.83-.17,4.34-2.09,1.13-4.14.45-6.36.66a11.17,11.17,0,0,1-.82-2.81c0-9.28,0-18.55,0-27.82A8.8,8.8,0,0,1,521.07,203.5Z"/><path class="cls-1" d="M588.34,203.3h6.85c.09,1.41.23,2.65.24,3.89,0,5.28,0,10.55,0,15.82,0,2.61.26,5.15,3,7l3.5.93.83-.07c5.6-.69,6.83-3.64,6.81-8.08,0-4.95,0-9.9,0-14.86,0-1.41,0-2.82.08-4.39a17.41,17.41,0,0,1,6.55-.24,24.54,24.54,0,0,1,.32,2.8c0,5.44-.11,10.87.05,16.3.29,9.59-5.92,13.68-13.56,13.82a18.52,18.52,0,0,1-7.51-1.07c-4.4-1.82-7-5-7.15-9.81C588.24,218.16,588.34,211,588.34,203.3Z"/><path class="cls-1" d="M561.1,203.36a19.12,19.12,0,0,1,2.12-.25h19.35a8.82,8.82,0,0,1-.05,5.4l-13.64.22c-.33.6-.6.87-.61,1.14,0,1.75,0,3.51,0,5.53a16.27,16.27,0,0,0,2.65.5c3.5.06,7,0,10.52,0a8.86,8.86,0,0,1,.26,5.6H568.47a36,36,0,0,0-.17,8.43,68.07,68.07,0,0,0,7.75.22c2.36.09,4.75-.26,7.27.28v4.72c-3.66.8-17.77.85-22,.12C560.7,231.82,560.5,211.32,561.1,203.36Z"/><path class="cls-1" d="M181.14,203.41h8.16c3.94,10.5,7.54,21,11.08,31.88-2.35,1-4.51.49-6.87.44l-2.91-6.51H178.69c-.88,2-1.77,4-2.72,6.19-2.06.92-4.23.37-6.45.34C170.14,231.81,179,207.31,181.14,203.41ZM189,223c-1.48-4.16-2.22-8-4.41-11.92-1.54,4.23-3.06,7.86-3.94,12.14A35.29,35.29,0,0,0,189,223Z"/><path class="cls-1" d="M358.65,203.38H380c1.25,1.56.89,3.11.52,5a21.24,21.24,0,0,1-3.06.48c-3.65.08-7.3.07-11,.09-1.18,2.21-.76,4.21-.51,6.47,4.39,1.17,8.9,0,13.29.81.91,1.58.69,3.11.24,4.89-4.25,1.22-8.78-.16-13.25.86-.86,2.6-.58,5.07-.27,7.79,4.78,1,9.58,0,14.2.62,1,2.29,1,2.29.35,5-3.36.69-15.62.84-21.63.23a11.69,11.69,0,0,1-.57-2.55q-.06-13.41,0-26.82C358.36,205.42,358.51,204.65,358.65,203.38Z"/><path class="cls-1" d="M715.21,235.34V203.53a139.71,139.71,0,0,1,21.39-.06,18.08,18.08,0,0,1,.3,2.19,24.08,24.08,0,0,1-.19,2.5c-4.78,1.08-9.61-.12-14.4.79-.65,2.13-.36,4.17-.28,6.47a17,17,0,0,0,2.72.47c3.5.05,7,0,10.39,0,1.25,1.72.74,3.33.7,5.18a28.19,28.19,0,0,1-3.16.42c-3.35.05-6.7,0-10.2,0-1.08,2.75-.27,5.41-.62,8.24,2.8.67,5.34.31,7.85.38s4.74,0,7.33.06v4.92C733.86,235.94,721.4,236.09,715.21,235.34Z"/><path class="cls-1" d="M229,235.54c-.71-4.21-.72-27.61-.06-31.66,3.23-.85,15.18-1,20.77-.3.72,2.1.73,2.1.4,4.67-2.17,1.14-4.59.45-6.91.61s-4.43-.24-6.79.37c-.73,2.08-.44,4.05-.23,6.32,4.26.84,8.42,0,12.41.58,1,2.22,1.05,2.22.3,5.23-4,.61-8.11-.1-12.09.42-1.1,3.3-1.12,3.86-.21,8.22,4.47.48,9.09-.05,13.6.32,1,2.27,1.06,2.27.4,5C247.29,236,234.94,236.19,229,235.54Z"/><path class="cls-1" d="M77,203.37H97.88c1.43,1.69.77,3.34.55,5.15-4.63.83-9.12-.07-13.62.59-1.16,2-.81,4-.41,6.21,4.15,1.35,8.53,0,12.72.91,1.1,1.55.55,3.11.47,4.82-4.24,1.33-8.62-.11-12.73.87-1,3.17-1,3.17-.44,7.64,2.2,1.13,4.62.51,7,.61s4.77,0,7.05,0c1.06,2.42,1.11,2.42.44,5.11-3.31.73-15.2.9-21.64.28a12.53,12.53,0,0,1-.56-2.56q-.06-13.43,0-26.84C76.66,205.41,76.81,204.64,77,203.37Z"/><path class="cls-1" d="M694,235.77h-6.3a13,13,0,0,1-.51-2.38q0-14.38,0-28.76a6.85,6.85,0,0,1,.3-1.22,18.49,18.49,0,0,1,2.58-.29c3.83,0,7.67,0,11.49.23s6.95,1.84,8.19,5.6c1.31,4,1.05,7.9-1.84,11.28-1.81,2.12-4.31,2.59-6.9,2.76-2,.13-4.12-.19-6.43.39C693.91,227.37,694.69,231.37,694,235.77Zm.15-26.8c0,3-.59,5.81.39,8.61,2.88.1,5.66.65,7.81-2,1-2.28,1.18-4.48-1.12-6.36A12.13,12.13,0,0,0,694.18,209Z"/><path class="cls-1" d="M42.7,203.48H50c.47,1.06,1.06,2.16,1.46,3.33,1.74,5.13,3.41,10.28,5.13,15.42.45,1.32,1,2.6,1.45,3.76,1.17.19,1.3-.51,1.5-1.07,1.9-5.58,3.78-11.17,5.69-16.75.51-1.49,1.12-2.95,1.68-4.41,2.23-.71,4.25-.46,6.57-.26a5.94,5.94,0,0,1,0,1.86q-5.46,14.79-11,29.56c0,.14-.2.24-.57.67-.94.08-2.17.23-3.41.29s-2.52,0-3.59,0C52.74,232.19,44.32,209.78,42.7,203.48Z"/><path class="cls-1" d="M298.06,235.41a13.31,13.31,0,0,1-6.92.09c-.58-2.94-.23-5.8-.29-8.63s0-5.75,0-8.62v-8.6c-3.06-1.56-6.27-.07-9.1-1.25a6.06,6.06,0,0,1,0-4.87c2.78-.66,5.65-.24,8.47-.31s5.75-.07,8.62,0,5.7-.29,8.55.28a6.27,6.27,0,0,1,0,5.11l-8.57.52a26.08,26.08,0,0,0-.46,3.3c0,6.22,0,12.45,0,18.67C298.3,232.5,298.15,233.9,298.06,235.41Z"/><path class="cls-1" d="M399.08,235.5a14.67,14.67,0,0,1-7,0c-.67-4.34-.22-8.64-.3-12.91s0-8.6,0-12.91c-3-1.48-6-.22-8.91-1.13-1.05-1.48-.69-3.12-.32-4.78a6.17,6.17,0,0,1,1.53-.48q11.52,0,23,0a4.87,4.87,0,0,1,1.36.4c.82,1.57.52,3.08.13,5l-8.75.49a27.37,27.37,0,0,0-.43,3.36c0,6.23,0,12.47,0,18.71C399.34,232.56,399.18,234,399.08,235.5Z"/><path class="cls-1" d="M224.38,230.39v4.84c-3.5.8-14,1-20.41.35a7.78,7.78,0,0,1-.56-2.08c0-9.42,0-18.83,0-28.25a7.46,7.46,0,0,1,.37-1.57c2.1-.88,4.28-.33,6.67-.43a28.86,28.86,0,0,1,.48,3.47c0,6.22,0,12.45,0,18.67,0,1.39.18,2.78.28,4.34C215.59,230.52,219.76,229.69,224.38,230.39Z"/><path class="cls-1" d="M775.32,15.76A14.13,14.13,0,1,1,761.06,1.87,14,14,0,0,1,775.32,15.76Zm-25.56-.07a11.6,11.6,0,0,0,11.32,11.74c5.92.06,11.5-5.2,11.51-11.16a11.42,11.42,0,1,0-22.83-.58Z"/><path class="cls-1" d="M32.66,203.59a14.29,14.29,0,0,1,6.07-.13,8.61,8.61,0,0,1,.58,2.13q0,14.1,0,28.22a8.41,8.41,0,0,1-.34,1.54c-1.93,1-3.92.4-6.06.42-1-2.88-.44-5.6-.54-8.25s0-5.42,0-8.13c0-2.55,0-5.1,0-7.65A47.73,47.73,0,0,1,32.66,203.59Z"/><path class="cls-1" d="M766.52,23.06l-1.76.16c-2.17-1.37-.67-4.07-2.52-5.94l-3.49-.42c-.25,2.25-.47,4.23-.71,6.41l-2.27-.51c-.07-4.68-.11-9.24,0-13.73,4.8-1,6.49-.88,9.86.64,1.31,2,.86,3.92-.48,5.73.3,1.19.66,2.37.87,3.58S766.34,21.47,766.52,23.06Zm-2.83-10.74c-1.17-2-2.75-2-4.37-1.67-.27,0-.48.38-1,.78.14,1,.31,2.21.46,3.35C761.2,15.09,763,15,763.69,12.32Z"/></svg>