<?xml version="1.0" encoding="UTF-8"?>
<svg width="404px" height="35px" viewBox="0 0 404 35" version="1.1" xmlns="http://www.w3.org/2000/svg" xmlns:xlink="http://www.w3.org/1999/xlink">
    <!-- Generator: Sketch 52.5 (67469) - http://www.bohemiancoding.com/sketch -->
    <title>divers logo</title>
    <desc>Created with Sketch.</desc>
    <g id="Page-1" stroke="none" stroke-width="1" fill="none" fill-rule="evenodd">
        <g id="V4" transform="translate(-63.000000, -863.000000)" fill="#BABCC5">
            <g id="divers-logo" transform="translate(63.000000, 863.000000)">
                <path d="M20,1.11805484 L15.0802615,6.54857766 L8.87711305,6.54857766 C8.87711305,6.54857766 6.73809633,6.31246798 6.73809633,8.90967454 L6.73809633,27.5623399 C6.73809633,27.5623399 6.73809633,29.6873271 8.66321138,29.6873271 L19.8930492,29.6873271 L19.8930492,34.999795 L4.81298128,34.999795 C4.81298128,34.999795 0.000193663804,35.1178499 0.000193663804,29.6873271 L0.000193663804,6.19441313 C0.000193663804,6.19441313 -0.106757172,1 4.70603045,1 L20,1.11805484 Z" id="Path"></path>
                <path d="M102.192393,29.6875 L88.0002089,29.6875 L88,35 L107.038505,35 C112,35 111.884616,30.0416667 111.884616,30.0416667 L111.884616,19.8888889 C111.884616,15.0486111 107.153888,15.0486111 107.153888,15.0486111 L97.2308978,15.0486111 C95.1539928,15.0486111 95.1539928,12.9236111 95.1539928,12.9236111 L95.1539928,8.90972222 C95.1539928,6.3125 97.461665,6.54861111 97.461665,6.54861111 L106.692354,6.54861111 L112,1.11805556 L93.0770878,1 C87.8848253,1 88.0002089,6.19444444 88.0002089,6.19444444 L88.0002089,15.0486111 C88.0002089,20.3611111 93.1924714,20.3611111 93.1924714,20.3611111 L103.115462,20.3611111 C103.115462,20.3611111 104.9616,20.0069444 104.9616,22.25 L104.9616,27.9166667 C104.846216,27.6805556 105.307751,29.6875 102.192393,29.6875 Z" id="Path"></path>
                <path d="M394.192393,29.6875 L380.000209,29.6875 L380,35 L399.038505,35 C404,35 403.884616,30.0416667 403.884616,30.0416667 L403.884616,19.8888889 C403.884616,15.0486111 399.153888,15.0486111 399.153888,15.0486111 L389.230898,15.0486111 C387.153993,15.0486111 387.153993,12.9236111 387.153993,12.9236111 L387.153993,8.90972222 C387.153993,6.3125 389.461665,6.54861111 389.461665,6.54861111 L398.692354,6.54861111 L404,1.11805556 L385.077088,1 C379.884825,1 380.000209,6.19444444 380.000209,6.19444444 L380.000209,15.0486111 C380.000209,20.3611111 385.192471,20.3611111 385.192471,20.3611111 L395.115462,20.3611111 C395.115462,20.3611111 396.9616,20.0069444 396.9616,22.25 L396.9616,27.9166667 C396.846216,27.6805556 397.192367,29.6875 394.192393,29.6875 Z" id="Path"></path>
                <polygon id="Path" points="126.176471 6 135.588235 6 141 0 121.705882 0 115 0 115 6"></polygon>
                <path d="M46,1.11805484 L41.0538116,6.54857766 L34.8173132,6.54857766 C34.8173132,6.54857766 32.6667965,6.31246798 32.6667965,8.90967454 L32.6667965,27.5623399 C32.6667965,27.5623399 32.6667965,29.6873271 34.6022615,29.6873271 L45.8924742,29.6873271 L45.8924742,34.999795 L30.8388573,34.999795 C30.8388573,34.999795 26.0001947,35.1178499 26.0001947,29.6873271 L26.0001947,6.19441313 C26.0001947,6.19441313 25.8926689,1 30.7313314,1 L46,1.11805484 Z" id="Path"></path>
                <path d="M30,1.11805484 L34.9197385,6.54857766 L41.1228869,6.54857766 C41.1228869,6.54857766 43.2619037,6.31246798 43.2619037,8.90967454 L43.2619037,27.5623399 C43.2619037,27.5623399 43.2619037,29.6873271 41.3367886,29.6873271 L30.1069508,29.6873271 L30.1069508,34.999795 L45.1870187,34.999795 C45.1870187,34.999795 49.9998063,35.1178499 49.9998063,29.6873271 L49.9998063,6.19441313 C49.9998063,6.19441313 50.1067572,1 45.2939696,1 L30,1.11805484 Z" id="Path"></path>
                <path d="M64.1265708,1 L64.1265708,27.0627178 C64.1265708,29.6689895 66.4253974,29.4320557 66.4253974,29.4320557 L71.7126987,29.4320557 L77,34.8815331 L62.0576268,35 C56.8852668,35 57.0002081,29.7874564 57.0002081,29.7874564 L57.0002081,1 L64.1265708,1 Z" id="Path"></path>
                <rect id="Rectangle" x="76" y="1" width="7" height="34"></rect>
                <path d="M218.63933,1 L218.63933,32.8675958 L215.196436,29.4320557 L209.735294,29.4320557 C209.735294,29.4320557 207.360885,29.6689895 207.360885,27.0627178 L207.360885,1 L200,1 L200.000215,29.7874564 C200.000215,29.7874564 199.881494,35 205.223916,35 L218.63933,34.8815331 L218.63933,35 L226,35 L226,1 L218.63933,1 Z" id="Path"></path>
                <path d="M366.182609,13.3205575 L366.182609,8.81881533 C366.182609,6.09407666 364.486957,6.44947735 364.486957,6.44947735 L359.286957,6.44947735 L356.008696,3.01393728 L356.008696,34.8815331 L349,34.8815331 L349,1 L356.008696,1 L356.008696,1.1184669 L368.782609,1 C373.869565,1 373.191304,6.21254355 373.191304,6.21254355 L373.191304,16.0452962 C373.191304,16.0452962 372.965217,19.5993031 369.8,19.5993031 L366.747826,19.5993031 L375,35 L367.652174,35 L360.530435,21.8501742 C360.530435,21.8501742 359.852174,20.1916376 358.495652,20.0731707 L354.878261,20.0731707 L354.878261,14.6236934 L364.713043,14.6236934 C364.713043,14.6236934 366.182609,15.2160279 366.182609,13.3205575 Z" id="Path"></path>
                <path d="M263.873387,9.29268293 L263.873387,27.0627178 C263.873387,29.6689895 261.574568,29.4320557 261.574568,29.4320557 L256.287284,29.4320557 L251,34.8815331 L265.942324,35 C271.114667,35 270.999726,29.7874564 270.999726,29.7874564 L270.999726,5.50174216 C270.999726,5.50174216 271.114667,1 266.63197,1 L252.494232,1 L252.494232,6.44947735 L261.689509,6.44947735 C261.689509,6.44947735 263.873387,5.85714286 263.873387,9.29268293 Z" id="Path"></path>
                <rect id="Rectangle" transform="translate(247.500000, 18.000000) rotate(-180.000000) translate(-247.500000, -18.000000) " x="244" y="1" width="7" height="34"></rect>
                <rect id="Rectangle" transform="translate(279.500000, 18.000000) rotate(-180.000000) translate(-279.500000, -18.000000) " x="276" y="1" width="7" height="34"></rect>
                <rect id="Rectangle" x="124" y="1" width="7" height="34"></rect>
                <path d="M151.810811,21.2578397 C152.567568,20.5470383 153.432432,20.1916376 154.405405,20.1916376 L164.027027,20.1916376 L164.027027,14.7421603 L159.918919,14.7421603 L155.162162,14.7421603 L151.810811,18.4146341 L151.810811,6.56794425 L155.27027,6.56794425 L160.027027,6.56794425 L165,1.1184669 L151.162162,1 L145,1 L145,1.1184669 L145,6.56794425 L145,29.5505226 L145,35 L151.702703,35 L155.162162,35 L164.891892,35 L164.891892,29.5505226 L151.702703,29.4320557 L151.702703,21.2578397 L151.810811,21.2578397 Z" id="Path"></path>
                <path d="M330.810811,21.2578397 C331.567568,20.5470383 332.432432,20.1916376 333.405405,20.1916376 L343.027027,20.1916376 L343.027027,14.7421603 L338.918919,14.7421603 L334.162162,14.7421603 L330.810811,18.4146341 L330.810811,6.56794425 L334.27027,6.56794425 L339.027027,6.56794425 L344,1.1184669 L330.162162,1 L324,1 L324,1.1184669 L324,6.56794425 L324,29.5505226 L324,35 L330.702703,35 L334.162162,35 L343.891892,35 L343.891892,29.5505226 L330.702703,29.4320557 L330.702703,21.2578397 L330.810811,21.2578397 Z" id="Path"></path>
                <path d="M199,35 L186.867647,1 L182.5,1 L178.132353,1 L166,35 L173.643382,35 L175.827206,28.4843206 L175.948529,28.7212544 C176.797794,27.7735192 178.011029,27.1811847 179.345588,27.1811847 L188.6875,27.1811847 L191.356618,35 L199,35 Z M185.533088,21.7317073 L180.194853,21.7317073 L177.040441,24.8118467 L182.5,8.81881533 L186.867647,21.7317073 L185.533088,21.7317073 Z" id="Shape" fill-rule="nonzero"></path>
                <polygon id="Path" points="303 35 299.029412 35 288 1 294.948529 1 303 27.0627178"></polygon>
                <polygon id="Path" points="303 35 307.051095 35 318 1 310.992701 1 303 27.0627178"></polygon>
            </g>
        </g>
    </g>
</svg>