<svg id="Layer_1" data-name="Layer 1" xmlns="http://www.w3.org/2000/svg" xmlns:xlink="http://www.w3.org/1999/xlink" viewBox="0 0 999 930"><defs><style>.cls-1{fill:#fffd98;}.cls-12,.cls-2,.cls-6,.cls-9{fill:#f4f4f7;}.cls-3,.cls-7{fill:#babcc5;}.cls-11,.cls-4{opacity:0.5;}.cls-4{fill:url(#linear-gradient);}.cls-13,.cls-15,.cls-16,.cls-5{fill:none;}.cls-12,.cls-13,.cls-15,.cls-16,.cls-5,.cls-6,.cls-7{stroke:#4e66ca;}.cls-12,.cls-13,.cls-15,.cls-16,.cls-5,.cls-6,.cls-7,.cls-9{stroke-miterlimit:10;}.cls-15,.cls-16,.cls-5,.cls-6,.cls-7,.cls-9{stroke-width:3px;}.cls-8{fill:#4e66ca;}.cls-9{stroke:#babcc5;}.cls-10{fill:#90aeff;}.cls-11{fill:url(#linear-gradient-2);}.cls-12,.cls-13{stroke-width:2.77px;}.cls-14{fill:url(#linear-gradient-3);}.cls-15{stroke-dasharray:11.82 11.82;}.cls-16{stroke-dasharray:11.91 11.91;}</style><linearGradient id="linear-gradient" x1="439.12" y1="382.66" x2="533.12" y2="482.65" gradientUnits="userSpaceOnUse"><stop offset="0" stop-color="#fff"/><stop offset="1" stop-color="#fff" stop-opacity="0"/></linearGradient><linearGradient id="linear-gradient-2" x1="721.75" y1="82.43" x2="860.55" y2="235.28" xlink:href="#linear-gradient"/><linearGradient id="linear-gradient-3" x1="216.93" y1="661.89" x2="220.93" y2="751.82" gradientUnits="userSpaceOnUse"><stop offset="0" stop-color="#babcc5"/><stop offset="1" stop-color="#babcc5" stop-opacity="0"/></linearGradient></defs><title>Illustration Step One</title><circle class="cls-1" cx="508" cy="449" r="109"/><rect class="cls-2" x="461" y="382" width="94" height="150"/><rect class="cls-3" x="481" y="381.5" width="55" height="149.5"/><rect class="cls-4" x="462" y="382" width="94" height="150"/><rect class="cls-5" x="461.5" y="381.5" width="94" height="150"/><path class="cls-6" d="M455.5,372.5h105a0,0,0,0,1,0,0v2.88a6.12,6.12,0,0,1-6.12,6.12H461.62a6.12,6.12,0,0,1-6.12-6.12V372.5A0,0,0,0,1,455.5,372.5Z"/><path class="cls-7" d="M453,354.5H563a0,0,0,0,1,0,0v14.81a3.19,3.19,0,0,1-3.19,3.19H456.19a3.19,3.19,0,0,1-3.19-3.19V354.5A0,0,0,0,1,453,354.5Z"/><path class="cls-8" d="M467.34,336.5h81.32a15.84,15.84,0,0,1,15.84,15.84v2.16a0,0,0,0,1,0,0h-113a0,0,0,0,1,0,0v-2.16A15.84,15.84,0,0,1,467.34,336.5Z"/><path class="cls-6" d="M455.5,531.5h105a0,0,0,0,1,0,0v2.88a6.12,6.12,0,0,1-6.12,6.12H461.62a6.12,6.12,0,0,1-6.12-6.12V531.5A0,0,0,0,1,455.5,531.5Z" transform="translate(1016 1072) rotate(180)"/><path class="cls-7" d="M453,540.5H563a0,0,0,0,1,0,0v14.81a3.19,3.19,0,0,1-3.19,3.19H456.19a3.19,3.19,0,0,1-3.19-3.19V540.5A0,0,0,0,1,453,540.5Z" transform="translate(1016 1099) rotate(180)"/><path class="cls-8" d="M462.76,558.5h90.49a11.26,11.26,0,0,1,11.26,11.26v6.74a0,0,0,0,1,0,0h-113a0,0,0,0,1,0,0v-6.74A11.26,11.26,0,0,1,462.76,558.5Z" transform="translate(1016 1135) rotate(180)"/><rect class="cls-7" x="503.5" y="318.5" width="18" height="18"/><rect class="cls-7" x="494.5" y="321.5" width="9" height="15"/><path class="cls-8" d="M687.49,83.5h223a8,8,0,0,1,8,8v154a0,0,0,0,1,0,0h-239a0,0,0,0,1,0,0v-154A8,8,0,0,1,687.49,83.5Z"/><rect class="cls-9" x="725" y="58" width="148" height="219" transform="translate(966.5 -631.5) rotate(90)"/><path class="cls-6" d="M664.5,245.5h266a0,0,0,0,1,0,0v0a15,15,0,0,1-15,15h-236a15,15,0,0,1-15-15v0a0,0,0,0,1,0,0Z"/><path class="cls-10" d="M828,177.81l-.06,3.41H805.38l-.39-2.06a34.77,34.77,0,0,1,5.48-3V163H794.81v13.86l5.86,1-.06,3.41H778.05l-.38-2.06a34.33,34.33,0,0,1,5.48-3V142.75l-5-.78.07-3.41H799.9l.39,2.06a28.53,28.53,0,0,1-5.48,3v13.28h15.66V142.75l-5-.78.06-3.41h21.66l.38,2.06a28.13,28.13,0,0,1-5.47,3v33.19Z"/><polygon class="cls-10" points="820.19 199.26 813.24 192.31 806.28 199.26 799.33 192.31 792.38 199.26 785.42 192.31 779.32 198.41 777.61 196.7 785.42 188.89 792.38 195.84 799.33 188.89 806.28 195.84 813.24 188.89 820.19 195.84 826.29 189.74 828 191.45 820.19 199.26"/><polygon class="cls-11" points="689.5 93.5 689.5 241.5 908.5 93.5 689.5 93.5"/><rect class="cls-12" x="107.5" y="663.5" width="219" height="155"/><polygon class="cls-7" points="67 632 107.5 663.5 325 663.5 365.5 632 67 632"/><line class="cls-13" x1="50.5" y1="696.5" x2="107.5" y2="663.5"/><line class="cls-13" x1="326.5" y1="663.5" x2="379.5" y2="696.5"/><polygon class="cls-8" points="190.5 663.5 175 632 254 632.39 243.5 663.5 190.5 663.5"/><polygon class="cls-14" points="326.5 818.5 326.5 663.5 107.5 663.5 260.75 818.25 326.5 818.5"/><rect class="cls-8" x="190.5" y="663.5" width="53" height="155"/><line class="cls-5" x1="655" y1="444" x2="661" y2="444"/><line class="cls-15" x1="672.82" y1="444" x2="785.09" y2="444"/><polyline class="cls-5" points="791 444 797 444 797 438"/><line class="cls-16" x1="797" y1="426.09" x2="797" y2="312.95"/><line class="cls-5" x1="797" y1="307" x2="797" y2="301"/><line class="cls-5" x1="217.5" y1="589.5" x2="217.5" y2="583.5"/><line class="cls-15" x1="217.5" y1="571.68" x2="217.5" y2="459.41"/><polyline class="cls-5" points="217.5 453.5 217.5 447.5 223.5 447.5"/><line class="cls-16" x1="235.41" y1="447.5" x2="348.55" y2="447.5"/><line class="cls-5" x1="354.5" y1="447.5" x2="360.5" y2="447.5"/></svg>